<?xml version="1.0" encoding="utf-8"?>
<!-- Generator: Adobe Illustrator 25.0.0, SVG Export Plug-In . SVG Version: 6.00 Build 0)  -->
<svg version="1.1"
	 id="svg4445" xmlns:cc="http://creativecommons.org/ns#" xmlns:dc="http://purl.org/dc/elements/1.1/" xmlns:inkscape="http://www.inkscape.org/namespaces/inkscape" xmlns:rdf="http://www.w3.org/1999/02/22-rdf-syntax-ns#" xmlns:sodipodi="http://sodipodi.sourceforge.net/DTD/sodipodi-0.dtd" xmlns:svg="http://www.w3.org/2000/svg"
	 xmlns="http://www.w3.org/2000/svg" xmlns:xlink="http://www.w3.org/1999/xlink" x="0px" y="0px" viewBox="0 0 490 207.2"
	 style="enable-background:new 0 0 490 207.2;" xml:space="preserve">
<style type="text/css">
	.st0{fill:#39B54A;}
	.st1{fill:#0F75BC;}
	.st2{fill:#515255;}
</style>
<sodipodi:namedview  bordercolor="#666666" borderopacity="1.0" fit-margin-bottom="0" fit-margin-left="0" fit-margin-right="0" fit-margin-top="0" id="base" inkscape:current-layer="layer1" inkscape:cx="245" inkscape:cy="103.62161" inkscape:document-units="px" inkscape:pageopacity="0.0" inkscape:pageshadow="2" inkscape:snap-center="true" inkscape:snap-object-midpoints="true" inkscape:window-height="705" inkscape:window-maximized="1" inkscape:window-width="1366" inkscape:window-x="-8" inkscape:window-y="-8" inkscape:zoom="1.2306122" pagecolor="#ffffff" showgrid="false">
	</sodipodi:namedview>
<path id="path5071" sodipodi:cx="4422.8569" sodipodi:cy="926.64789" sodipodi:rx="457.14285" sodipodi:ry="434.28571" sodipodi:type="arc" class="st0" d="
	M490,21.5c0,11.9-9.6,21.5-21.5,21.5S447,33.4,447,21.5S456.6,0,468.5,0S490,9.6,490,21.5z"/>
<g>
	<path class="st1" d="M212.7,102.7l-0.2-0.2l-0.8,0.8c-4.4,4.2-10.7,7.8-17.3,9.8c-3.2,1-6.5,1.6-9.9,1.9c-2.2,0.2-6.5,0.1-9.2-0.2
		c-11-1.2-19.9-5.4-26.2-12.7c-5.3-6.1-8.7-14.2-9.8-23.4c-0.6-5-0.4-10.2,0.5-14.9c2.1-10.6,7.4-19.5,15.3-25.3
		c5.4-4,11.7-6.4,19-7.5c2.5-0.4,3.8-0.4,7-0.4c3.2,0,4.1,0,6.4,0.4c8.7,1.1,16.8,4.9,22.8,10.5l0.9,0.8l0.6-0.6
		c0.4-0.3,3.8-3.7,7.7-7.5c3.9-3.8,7.1-6.9,7.1-7c0-0.1-2.1-2.1-3.5-3.3c-7-6-14.8-10.3-23.3-12.9c-4.8-1.4-9.5-2.3-14.7-2.6
		c-1.4-0.1-6.9-0.1-8.6,0c-15.8,0.9-29.1,6-39.7,15.1c-1.2,1.1-4.3,4.1-5.3,5.3c-8.8,10.1-14.2,23.1-15.5,37.5
		c-0.3,3.2-0.4,7.6-0.2,10.7c0.8,14.2,5.1,26.7,12.5,36.6c11.5,15.4,29.7,23.4,52.7,23.4c6.7,0,12.6-0.7,18.6-2.3
		c10.5-2.7,19.8-7.8,27.7-15.3l0.9-0.8l-7.8-7.9C216.4,106.4,212.8,102.8,212.7,102.7z"/>
	<path class="st1" d="M439.2,72.3c-17.6-34-31.9-61.9-32-61.9c0,0-0.2,0.3-0.4,0.6c-0.2,0.3-14.5,28.1-31.9,61.8
		c-17.4,33.7-31.6,61.3-31.6,61.4c0,0.1,1.7,0.1,13.1,0.1l13.2,0l18.8-36.7c10.3-20.2,18.8-36.7,18.8-36.6
		c0.1,0.1,25.6,50.6,25.6,50.6c0,0-9.1,0-20.3,0h-20.3l-5.9,11.3l-5.9,11.3l22.7,0c12.5,0,32.9,0,45.4,0l22.7,0L439.2,72.3z"/>
	<path class="st1" d="M92.4,73.9c-1.9-1.4-4.5-2.7-6.5-3.3c-0.3-0.1-0.6-0.2-0.6-0.2c0,0,0.5-0.3,1.2-0.6c2.1-1,3.8-2.1,5.5-3.5
		c1.2-0.9,2.9-2.7,3.8-3.8c2.9-3.7,4.7-8.1,5.2-12.9c0.2-1.4,0.2-4.7,0-6.5c-0.7-8.9-3.7-15.8-9.1-21.2c-6.2-6.2-15.4-9.9-27-10.9
		c-3-0.3-5.1-0.3-34.9-0.3H0v61.8v61.8l31.8,0c23,0,32.1-0.1,32.9-0.1c4.2-0.4,6-0.5,8.4-1c18.2-3,28.7-12.4,31.2-27.7
		c0.4-2.3,0.6-4.9,0.6-7.2c0-6.4-2.8-13.9-7.2-19.4C96.3,77.1,94.1,75.1,92.4,73.9z M23,46.1V31.9l19.1,0l19.1,0l1.2,0.2
		c4.4,0.6,7.8,2,10.5,4.5c2.3,2,4.1,5,4.7,8.1c0.3,1.2,0.3,3.6,0,4.8c-0.8,3.8-2.9,6.5-6.6,8.3c-2.5,1.3-5.9,2-9.9,2.3
		c-0.8,0-8.2,0.1-19.8,0.1H23V46.1z M81.6,97.7c0,1.6,0,1.9-0.2,2.6c-0.3,1.5-0.9,2.8-1.6,4c-3,4.7-9.9,7.6-19.2,8.1
		c-0.9,0-8.5,0.1-19.6,0.1H23V96.6V80.8h18.6c15.8,0,18.7,0,19.6,0.1c6.3,0.7,12.5,3.3,16.2,7c1.3,1.3,2.3,2.7,3,4.1
		c0.5,1,0.7,1.7,1,2.8C81.6,95.8,81.6,96,81.6,97.7z"/>
	<path class="st1" d="M348.3,68.5c-0.6-10.1-2.9-18.9-7-27.1c-2.7-5.3-5.8-9.7-9.8-13.8c-3.4-3.5-6.6-6-10.7-8.4
		c-8.7-5.2-18.8-8-30.8-8.5c-1.1,0-11.9-0.1-26.8-0.1h-25v61.8v61.8l26.4,0c19.9,0,26.7,0,27.5-0.1c3.8-0.3,6.4-0.6,9-1.1
		c8.2-1.6,15.5-4.4,21.9-8.7c15-9.9,24.1-27.1,25.3-47.4C348.4,75.1,348.4,70.2,348.3,68.5z M319.8,94.3
		c-5.7,10-15.4,15.9-28.1,17.2c-2.4,0.2-4.8,0.3-17.6,0.3h-12.9V72.3V32.8h13.3c8.2,0,13.8,0,14.8,0.1c10.1,0.6,18.3,3.9,24.5,9.9
		c6.2,6,10.1,14.7,11.2,24.6C325.9,77.1,324.1,86.8,319.8,94.3z"/>
</g>
<g>
	<path class="st2" d="M256.7,167.5c1.1-0.5,3.1-1.9,3.1-2.2c0-0.1-0.6-0.7-1.4-1.5l-1.4-1.4l-0.4,0.4c-1.2,1-2.4,1.6-4,1.8
		c-0.9,0.1-2.4,0.1-3.2-0.1c-2.8-0.6-4.7-2.4-5.4-5.2c-0.3-1.1-0.3-2.8-0.1-3.9c0.6-3.1,2.7-5.2,5.7-5.8c1-0.2,2.9-0.2,3.9,0.1
		c1.1,0.3,2.2,0.9,3,1.6l0.3,0.3l1.4-1.4l1.4-1.4l-0.3-0.3c-0.9-1-2.7-2-4.2-2.6c-1.3-0.4-2.1-0.6-3.7-0.6c-1,0-1.7,0-2.2,0.1
		c-2,0.3-3.5,0.9-5,1.9c-0.9,0.6-2.2,1.9-2.8,2.8c-1.5,2.3-2.2,5.2-2,8c0.2,3.1,1.3,5.5,3.2,7.4c1.5,1.5,3.1,2.4,5.4,2.9
		C251,169,254.1,168.7,256.7,167.5z"/>
	<path class="st2" d="M365.6,145.7c-0.6,0.2-1.1,0.5-1.4,1.1c-0.2,0.4-0.2,0.5-0.2,1.2c0,0.7,0,0.8,0.2,1.2c0.4,0.8,1.4,1.3,2.3,1.1
		c0.6-0.1,1.3-0.5,1.6-0.8c0.5-0.7,0.6-1.8,0.2-2.6C368,145.8,366.7,145.4,365.6,145.7z"/>
	<path class="st2" d="M157.9,156.8l-0.5-0.3l0.4-0.2c1-0.6,1.8-1.5,2.2-2.6c0.2-0.5,0.2-0.8,0.2-1.6c0-1.9-0.5-3.2-1.6-4.3
		c-1.1-1.1-2.4-1.7-4.4-2c-0.4-0.1-2.8-0.1-6.5-0.1h-5.9v11.2v11.2h6c3.7,0,6.3,0,6.7-0.1c3.4-0.4,5.4-1.9,6.2-4.5
		c0.1-0.4,0.2-0.9,0.2-1.6c0-0.8,0-1.1-0.1-1.6C160.3,158.8,159.3,157.4,157.9,156.8z M146,152.2v-2.5h3.5c2.8,0,3.6,0,4,0.1
		c0.6,0.2,1,0.4,1.5,0.8c1,0.9,1.1,2.3,0.3,3.2c-0.3,0.4-0.8,0.6-1.4,0.8c-0.3,0.1-1,0.1-4.2,0.1l-3.8,0V152.2z M156.3,162.5
		c-0.3,0.6-1.2,1.2-2.2,1.5c-0.4,0.1-1,0.1-4.3,0.2l-3.8,0v-2.9v-2.9l3.6,0c3.1,0,3.7,0,4.1,0.2c1.2,0.3,2.2,1.1,2.6,1.8
		C156.6,161.1,156.6,161.9,156.3,162.5z"/>
	<path class="st2" d="M468.8,145.7h-2v4.2v4.2l-0.5-0.5c-0.7-0.6-1.8-1.2-2.9-1.5c-0.7-0.2-0.9-0.2-2.1-0.2c-1,0-1.4,0.1-2,0.2
		c-2.8,0.7-4.6,2.6-5.3,5.4c-0.2,0.9-0.3,2.4-0.2,3.5c0.2,2.2,0.9,3.7,2.2,5.1c1.4,1.4,2.8,2,5,2.2c1.6,0.2,3.2-0.1,4.3-0.8
		c0.5-0.3,1.3-1,1.5-1.4l0.2-0.2l0.1,0.9c0.1,0.5,0.1,1,0.1,1c0,0.1,0.2,0.1,1.9,0.1h1.8v-11.2v-11.2H468.8z M466.5,160.5
		c-0.1,1.7-0.9,3-2.3,3.8c-1.9,1-4,0.7-5.4-0.8c-0.7-0.7-1.2-2.1-1.2-3.2c0-0.2,0-0.6,0.1-0.9c0.5-2.7,3.1-4.2,5.8-3.4
		c1.1,0.4,2.1,1.2,2.6,2.3C466.5,159,466.6,159.6,466.5,160.5z"/>
	<path class="st2" d="M202.9,167.9c1.7,0.7,3.8,0.8,5.8,0.5c1.8-0.3,3.7-1.2,4.6-2.2l0.3-0.3l-1.3-1.3l-1.3-1.3l-0.4,0.3
		c-0.9,0.7-2.2,1.1-3.6,1.2c-1.9,0.1-3.5-0.6-4.4-1.8c-0.2-0.3-0.5-1.1-0.5-1.4c0-0.1,2-0.1,6.2-0.1l6.2,0l0-1.3
		c0-0.7,0-1.5-0.1-1.9c-0.4-3.4-2.3-5.6-5.4-6.3c-1.2-0.3-2.6-0.4-3.8-0.2c-2.9,0.3-5.2,1.9-6.4,4.4c-1.3,2.7-1,6.5,0.6,8.9
		C200.2,166.3,201.6,167.4,202.9,167.9z M202.3,158.2c0.4-1.3,1.6-2.3,3-2.7c0.6-0.1,2.1-0.2,2.7,0c0.7,0.2,1.4,0.5,1.8,0.9
		c0.4,0.4,0.8,1.1,0.9,1.6l0,0.3h-4.2h-4.2L202.3,158.2z"/>
	<path class="st2" d="M330.9,166l-1.3-1.3l-1.3-1.3l-0.3,0.3c-0.4,0.4-1.1,0.7-2,1c-0.6,0.2-0.8,0.2-1.9,0.2c-0.9,0-1.3,0-1.7-0.1
		c-1.5-0.4-2.6-1.4-2.9-2.7l-0.1-0.4h6.2h6.2l0.1-0.6c0.2-2-0.3-4.4-1.1-5.8c-0.4-0.7-1.3-1.6-1.9-2c-1.6-1.1-3.9-1.6-6.3-1.3
		c-2.2,0.2-4.2,1.3-5.4,2.9c-0.6,0.8-1.2,2-1.5,3c-0.2,0.7-0.2,0.9-0.2,2.5c0,1.6,0,1.7,0.2,2.4c0.9,3.3,3,5.2,6.4,5.8
		c1,0.2,3,0.2,3.9,0c1.9-0.4,3.5-1.1,4.6-2.1L330.9,166z M319.6,158.2c0.5-1.3,1.6-2.3,3-2.6c0.6-0.2,2.1-0.2,2.7,0
		c0.7,0.2,1.4,0.5,1.8,1c0.4,0.4,0.8,1.2,0.9,1.6l0,0.3h-4.2h-4.2L319.6,158.2z"/>
	<path class="st2" d="M190.5,165.1c-1.6,0.4-4.3-0.4-5.9-1.7c-0.3-0.2-0.5-0.4-0.6-0.3c-0.1,0.2-1.9,2.7-1.9,2.8
		c0,0,0.2,0.2,0.4,0.4c1.9,1.7,3.8,2.4,6.8,2.4c1.8,0,2.9-0.2,4.1-0.8c1.3-0.6,2.2-1.7,2.6-2.9c0.2-0.7,0.3-2,0.1-2.8
		c-0.5-2.3-2.4-3.5-6.3-3.8c-2-0.2-2.8-0.5-3.1-1.1c-0.6-1.3,0.7-2.2,3-2.1c1.3,0.1,2.2,0.4,3.1,1c0.3,0.2,0.5,0.4,0.5,0.4
		c0,0,0.5-0.6,1.1-1.3l1.1-1.3l-0.2-0.2c-1.2-1-2.5-1.6-4-1.8c-0.9-0.1-2.9-0.1-3.7,0c-2.6,0.4-4.4,1.8-4.8,3.7c-0.3,1.5,0,3,0.9,4
		c1.1,1.2,2.8,1.8,5.9,2.1c1.1,0.1,1.5,0.2,2,0.5C193.1,163,192.4,164.7,190.5,165.1z"/>
	<path class="st2" d="M230.5,165c0.3-0.8,0.3-2.3,0-3.2c-0.3-1.1-1.1-2-2.2-2.5c-1-0.5-2-0.7-4-0.9c-2-0.2-2.8-0.5-3.1-1.1
		c-0.6-1.3,0.7-2.2,3-2.1c0.5,0,1.1,0.1,1.3,0.2c0.6,0.2,1.5,0.6,1.9,0.9c0.2,0.2,0.3,0.3,0.4,0.3c0,0,0.5-0.6,1.2-1.3l1.1-1.3
		l-0.2-0.2c-1.2-1-2.5-1.6-4-1.8c-0.9-0.1-2.9-0.1-3.7,0c-1.5,0.3-2.8,0.9-3.7,1.7c-0.9,0.9-1.3,1.8-1.3,3.1c0,1.2,0.4,2.1,1.2,3
		c1.1,1.1,2.7,1.7,5.4,2c1.4,0.1,1.8,0.2,2.3,0.5c1.4,0.7,0.7,2.5-1.2,2.9c-1.6,0.4-4.3-0.5-5.9-1.7c-0.2-0.2-0.5-0.3-0.5-0.3
		c-0.1,0.2-1.9,2.7-1.9,2.8c0,0,0.2,0.2,0.4,0.4c1.9,1.7,3.8,2.4,6.8,2.4c1.8,0,2.9-0.2,4.1-0.8C229.2,167.3,230.1,166.2,230.5,165z
		"/>
	<path class="st2" d="M338.6,168.1l0-4.6c0-3.9,0-4.7,0.2-5c0.4-1.4,1.3-2.2,2.6-2.6c0.4-0.1,0.7-0.1,1.4-0.1c1,0,1.5,0.2,2.1,0.6
		c0.2,0.1,0.4,0.3,0.4,0.3c0.1,0,0.4-0.5,1-1.6c0.5-0.9,0.9-1.7,0.9-1.8c0-0.1-0.7-0.7-1.3-0.9c-0.8-0.4-1.6-0.5-2.6-0.6
		c-0.5,0-1.1,0-1.3,0c-1.3,0.2-2.2,0.8-2.9,1.6c-0.2,0.2-0.3,0.4-0.3,0.4c0,0-0.1-0.4-0.1-0.9l-0.1-0.8h-1.8h-1.8v7.9v7.9h1.9H338.6
		z"/>
	<path class="st2" d="M355.4,168.7c1.2,0,1.6-0.1,2.2-0.2c1.7-0.4,2.9-1.2,3.6-2.4c0.5-0.9,0.7-1.5,0.7-2.7c0-1.4-0.3-2.3-1.2-3.2
		c-1-1-2.3-1.5-4.6-1.7c-2.4-0.3-2.9-0.4-3.4-0.8c-0.8-0.7-0.6-1.6,0.4-2.1c1.5-0.7,4.1-0.4,5.5,0.7c0.2,0.2,0.4,0.3,0.5,0.3
		c0.1,0,2.2-2.5,2.2-2.6c0-0.1-0.7-0.6-1.3-1c-0.7-0.4-1.9-0.8-2.9-1c-0.9-0.1-2.9-0.1-3.7,0c-2,0.4-3.6,1.3-4.4,2.6
		c-0.4,0.6-0.5,1.2-0.5,2.2c0,0.7,0,1,0.2,1.4c0.7,2.1,2.7,3.2,6.4,3.5c2.3,0.2,3,0.6,3.1,1.5c0.1,0.7-0.5,1.4-1.4,1.7
		c-0.7,0.3-2,0.3-3,0c-1.4-0.4-2.9-1.1-3.5-1.7c-0.1-0.1-0.3-0.2-0.3-0.2c0,0-0.3,0.3-0.6,0.8c-0.3,0.4-0.7,1.1-1,1.4l-0.5,0.6
		l0.5,0.4c1.1,1,2.3,1.7,3.6,2C352.9,168.6,353.8,168.7,355.4,168.7z"/>
	<path class="st2" d="M176,152.3l-0.1,0.3c0,0.2,0,0.5,0,0.8c0,0.3,0,0.6,0,0.7l0,0.2l-0.2-0.3c-0.6-0.8-1.9-1.6-3.1-1.9
		c-0.9-0.2-2.7-0.2-3.7,0c-1.5,0.3-2.8,1-3.8,1.9c-1.6,1.5-2.3,3.5-2.3,6.2c0,1.8,0.3,3,0.9,4.4c1.1,2.3,3.4,3.8,6.3,4
		c1.5,0.1,2.6-0.1,3.9-0.7c0.8-0.4,1.5-0.9,1.9-1.5c0.1-0.2,0.2-0.3,0.2-0.3c0,0,0.1,0.5,0.1,1l0.1,1l1.9,0l1.9,0v-7.9v-7.9h-1.9
		H176z M175.7,161.4c-0.5,2.4-2.6,3.9-5.1,3.6c-2-0.3-3.3-1.5-3.8-3.3c-0.2-0.7-0.2-2,0-2.7c0.4-1.7,1.7-3,3.4-3.3
		c0.7-0.1,1.8-0.1,2.4,0.1c1.4,0.4,2.5,1.5,3,2.9C175.8,159.3,175.8,160.6,175.7,161.4z"/>
	<path class="st2" d="M277.2,161.1c0.4-4.3-2.2-8.1-6.3-8.9c-0.8-0.2-2.3-0.2-3-0.1c-1.4,0.2-2.5,0.6-3.6,1.3
		c-1.6,1-2.7,2.7-3.3,4.7c-0.2,0.6-0.2,0.9-0.2,2.3c0,1.7,0.1,2.1,0.5,3.3c0.5,1.3,1.5,2.6,2.6,3.3c2.4,1.7,6.2,2,9,0.6
		C275.4,166.4,276.9,164.2,277.2,161.1z M266.1,163.8c-0.9-0.9-1.4-2.1-1.4-3.5c0-1.4,0.5-2.5,1.3-3.4c0.8-0.8,1.7-1.1,2.8-1.2
		c0.3,0,0.8,0,1.1,0.1c2.7,0.7,4.1,4.1,2.7,6.8C271.5,165,268.1,165.6,266.1,163.8z"/>
	<path class="st2" d="M386.6,165c1.7-2.7,1.8-6.5,0.1-9.3c-1.6-2.7-4.8-4.1-8.2-3.7c-3.4,0.4-5.9,2.6-6.8,6
		c-0.1,0.5-0.2,0.8-0.2,2.2c0,1.5,0,1.7,0.2,2.4c0.6,2.4,2.1,4.1,4.1,5.1c2.3,1.1,5.3,1.1,7.6,0C384.8,167.1,385.8,166.2,386.6,165z
		 M383.3,162.7c-0.3,0.6-1.1,1.4-1.7,1.7c-1.2,0.6-2.7,0.6-3.9,0c-0.6-0.3-1.4-1.1-1.7-1.7c-0.5-1-0.7-2.5-0.4-3.7
		c0.4-1.6,1.5-2.8,3-3.2c0.5-0.1,1.5-0.2,2,0c1.2,0.3,2.2,1.1,2.8,2.4C384,159.5,384,161.3,383.3,162.7z"/>
	<path class="st2" d="M417.7,166.9c1.8,1.5,4.8,2.2,7.2,1.5c1.2-0.3,2.7-1.3,3.1-2c0.1-0.1,0.2-0.2,0.2-0.2c0,0,0.1,0.4,0.1,1l0.1,1
		l1.9,0l1.9,0v-7.9v-7.9h-1.9h-1.9l-0.1,0.4c0,0.2,0,0.6,0,0.9c0,0.8,0,0.8-0.7,0.1c-0.5-0.5-0.7-0.7-1.3-1c-1.1-0.5-1.5-0.6-3-0.6
		c-1.1,0-1.5,0-2.1,0.1c-1.6,0.4-2.8,1-3.9,2.1c-1.5,1.5-2.2,3.4-2.2,6C415,163.2,415.9,165.4,417.7,166.9z M419.1,158.9
		c0.4-1.8,1.8-3,3.7-3.4c0.6-0.1,1.6,0,2.2,0.1c1.6,0.5,2.7,1.7,3.1,3.4c0.2,0.8,0.1,2.2-0.2,2.9c-0.7,1.9-2.2,3-4.3,3
		c-2.2,0-3.9-1.3-4.5-3.4C419,160.9,419,159.6,419.1,158.9z"/>
	<path class="st2" d="M295.5,168.1l0-4.9c0-4.7,0-4.9-0.2-5.6c-0.4-1.6-0.9-2.6-1.8-3.6c-0.9-0.9-1.9-1.5-3-1.8
		c-0.7-0.2-2.2-0.2-2.8-0.1c-1.3,0.2-2.3,0.8-3.4,1.7c-0.3,0.2-0.5,0.4-0.5,0.4c0,0-0.1-0.5-0.1-1l-0.1-1h-1.8h-1.8v7.9v7.9h1.9h2
		l0-4.4c0-4.9,0-4.8,0.6-5.9c0.7-1.4,1.9-2.1,3.5-2.1c1.8,0,3,1,3.6,2.8c0.1,0.4,0.1,1,0.2,5l0,4.6h2H295.5z"/>
	<path class="st2" d="M402.1,163.8v4.3h2h2v-4.4c0-5.4-0.1-6.1-0.7-7.7c-1.2-2.9-4.1-4.5-7.3-3.9c-1.1,0.2-2.2,0.8-3.3,1.6
		c-0.7,0.6-0.6,0.6-0.8-0.7l-0.1-0.9h-1.8h-1.8v7.9v7.9h2h2v-4.4c0-3.7,0-4.5,0.1-4.9c0.4-1.5,1.4-2.7,2.8-3
		c0.6-0.2,1.9-0.1,2.5,0.1c1.2,0.5,2,1.6,2.2,3.1C402.1,159.3,402.1,161.4,402.1,163.8z"/>
	<path class="st2" d="M443.3,155.7c1.5,0,2.6,0.6,3.3,1.9c0.5,1,0.5,0.9,0.5,5.9l0,4.6h2h2l0-4.8c0-5.3,0-5.4-0.6-6.9
		c-0.4-1.1-0.8-1.8-1.6-2.6c-0.8-0.8-1.7-1.3-2.7-1.6c-0.8-0.2-2.2-0.3-3-0.1c-0.7,0.1-1.1,0.3-1.7,0.6c-0.7,0.3-1.3,0.7-1.8,1.2
		c-0.2,0.2-0.4,0.4-0.4,0.3c0,0-0.1-0.5-0.1-1l-0.1-1l-1.8,0l-1.8,0v7.9v7.9h2h2V164c0-4.6,0-5,0.5-5.9
		C440.5,156.5,441.7,155.7,443.3,155.7z"/>
	<path class="st2" d="M314.2,152.4c0-0.1,0-0.1-2.1-0.1l-2.2,0l-1.1,2.5c-0.6,1.4-1.6,3.9-2.2,5.7c-0.6,1.7-1.2,3.2-1.2,3.3
		c-0.1,0.2-0.3-0.3-1.3-3.1c-0.7-1.8-1.7-4.5-2.3-5.9l-1.1-2.6h-2.2c-2.2,0-2.2,0-2.1,0.2c0,0.1,1.4,3.4,3.1,7.4
		c1.7,4,3.2,7.5,3.3,7.8l0.2,0.6h2.2h2.2l3.3-7.8C312.6,156.1,314.1,152.5,314.2,152.4z"/>
	<polygon class="st2" points="364.3,152.3 364.3,160.2 364.3,168.1 366.3,168.1 368.3,168.1 368.3,160.2 368.3,152.3 366.3,152.3 	
		"/>
	<path class="st2" d="M436.6,178.3c-0.6,0-0.7,0-1.2,0.2c-0.9,0.4-1.2,1-1.2,2c0,0.5,0,0.7,0.2,1.1c0.4,0.8,1.1,1.2,2,1.2
		c1,0,1.7-0.4,2.1-1.1c0.2-0.4,0.2-0.5,0.2-1.2c0-0.8-0.1-1.2-0.6-1.6C437.7,178.4,437.4,178.3,436.6,178.3z"/>
	<path class="st2" d="M137.1,180.4c-0.8-0.6-2.3-1.3-3.2-1.6c-1.6-0.5-1.6-0.5-7.3-0.5l-5.3,0v11.2v11.2h4.7c5.7,0,6.4-0.1,8.3-0.7
		c2.6-0.9,4.5-2.6,5.7-5c0.8-1.6,1.2-3,1.2-5C141.4,186,139.9,182.5,137.1,180.4z M135.5,194.2c-0.8,1-2,1.7-3.3,2.1
		c-0.6,0.2-0.8,0.2-3.6,0.2l-3,0v-7.1v-7.1h2.7c2,0,2.8,0,3.3,0.1c1.5,0.3,2.5,0.8,3.5,1.8c0.7,0.7,1.1,1.4,1.5,2.4
		C137.5,189.2,137.1,192.2,135.5,194.2z"/>
	<polygon class="st2" points="199.2,178.3 199.2,189.5 199.2,200.7 201.2,200.7 203.2,200.7 203.2,189.5 203.2,178.3 201.2,178.3 	
		"/>
	<path class="st2" d="M341.6,178.4l-2.3,0l-2.3,0l-5,11.1c-2.7,6.1-5,11.1-5,11.2c0,0.1,0.3,0.1,2.3,0.1l2.3,0l0.9-2.1l1-2.1l5.8,0
		l5.8,0l0.9,2.1l0.9,2.1h2.3c1.3,0,2.3,0,2.3,0s-2.2-5-5-11.2L341.6,178.4z M339.3,192.5c-2.2,0-4,0-4-0.1c0,0,0.9-2.1,2-4.7
		c1.4-3.3,2-4.6,2.1-4.5c0,0.1,0.9,2.1,2,4.6c1.1,2.4,1.9,4.5,2,4.5C343.3,192.4,342.5,192.5,339.3,192.5z"/>
	<path class="st2" d="M399.1,190.1c-0.5-2.9-2-4.7-4.5-5.2c-1-0.2-2.7-0.2-3.6,0c-0.9,0.2-1.8,0.7-2.5,1.4l-0.6,0.6v-4.3v-4.3h-2h-2
		v11.2v11.2h2h2v-4.3c0-3.6,0-4.4,0.1-4.8c0.6-2.4,2.9-3.7,5.1-2.9c0.7,0.3,1.3,0.8,1.7,1.6c0.4,0.8,0.4,1.2,0.4,6v4.4h2h2l0-4.9
		C399.2,191.5,399.2,190.8,399.1,190.1z"/>
	<path class="st2" d="M318.6,197c-0.7,0.2-1.5,0.3-2,0.1c-0.4-0.2-0.9-0.7-1-1.1c-0.1-0.2-0.1-1.1-0.1-4l0-3.7h2.2h2.2v-1.7V185
		h-2.2h-2.2v-2.2v-2.2l-0.3,0c-0.2,0-1.1,0.1-1.9,0.2c-0.9,0.1-1.6,0.2-1.7,0.2c0,0-0.1,0.9-0.1,2v2H310h-1.4v1.7v1.7h1.4h1.4l0,4
		c0,3.9,0,4.1,0.2,4.7c0.5,2,1.7,3.2,3.6,3.6c0.9,0.2,2.4,0.2,3.5,0c0.9-0.2,1.6-0.4,1.6-0.6c0-0.2-1.1-3.3-1.1-3.3
		C319.2,196.8,318.9,196.9,318.6,197z"/>
	<path class="st2" d="M380.6,196.8c-0.6,0.3-1.3,0.4-1.8,0.4c-0.9,0-1.5-0.4-1.9-1.1c-0.2-0.4-0.2-0.4-0.2-4.1l0-3.7h2.2h2.2v-1.7
		V185H379h-2.2v-2.2v-2.2l-0.3,0c-0.2,0-1.1,0.1-1.9,0.2c-0.9,0.1-1.6,0.2-1.7,0.2c0,0-0.1,0.9-0.1,2v2h-1.4h-1.4v1.7v1.7h1.4h1.4
		l0,4c0,3.9,0,4.1,0.2,4.7c0.6,2,1.8,3.3,3.7,3.7c0.9,0.2,2.9,0.1,3.9-0.1c0.6-0.2,1-0.3,1.1-0.4c0,0-0.2-0.8-0.5-1.7
		C380.8,197.1,380.7,196.8,380.6,196.8z"/>
	<path class="st2" d="M451.8,198.3l-0.5-1.5l-0.3,0.1c-1.3,0.5-2.6,0.4-3.1-0.3c-0.4-0.6-0.5-0.8-0.5-4.7v-3.6h2.2h2.2v-1.7V185
		h-2.2h-2.2v-2.2v-2.2l-0.3,0c-0.2,0-1,0.1-1.9,0.2c-0.9,0.1-1.6,0.2-1.7,0.2c0,0-0.1,0.9-0.1,2v2H442h-1.5v1.7v1.7h1.5h1.5v3.9
		c0,3.6,0,4,0.2,4.6c0.4,1.9,1.4,3.1,3.1,3.7c0.6,0.2,0.8,0.2,1.8,0.3c1.3,0,2.1-0.1,3.1-0.4c0.7-0.2,0.7-0.3,0.7-0.4
		C452.3,199.9,452.1,199.2,451.8,198.3z"/>
	<path class="st2" d="M154.1,184.6c-0.7-0.1-2.7-0.2-3.4-0.1c-2,0.3-3.5,1-4.7,2.3c-1.4,1.4-2.1,2.9-2.3,5.1
		c-0.3,2.7,0.6,5.3,2.2,6.9c1.6,1.6,4,2.4,6.8,2.3c1.6-0.1,2.9-0.4,4.2-1c0.8-0.4,1.2-0.7,1.8-1.2l0.4-0.4l-1.3-1.3l-1.3-1.3
		l-0.4,0.3c-0.5,0.4-1.3,0.8-2.2,1c-0.9,0.2-2.5,0.3-3.2,0c-1.4-0.4-2.5-1.3-2.9-2.5c-0.1-0.2-0.1-0.5-0.1-0.5
		c0-0.1,1.1-0.1,6.1-0.1l6.1,0v-1.6c0-1.7-0.1-2.3-0.5-3.4C158.7,186.7,156.8,185.2,154.1,184.6z M152,190.9h-4.2l0-0.2
		c0.1-0.4,0.6-1.1,1-1.6c0.5-0.5,1.3-0.9,2-1.1c0.2,0,0.5-0.1,0.6-0.1c0.3-0.1,1.7,0,2.1,0.1c1.3,0.4,2.2,1.2,2.5,2.4l0.1,0.4H152z"
		/>
	<path class="st2" d="M190.5,184.6c-0.6-0.1-2.7-0.2-3-0.1c-0.1,0-0.5,0.1-0.8,0.1c-2.7,0.4-5,2.2-6,4.5c-1.1,2.7-0.8,6.2,0.7,8.5
		c1.5,2.2,4,3.4,7.3,3.4c2.5,0,5-0.9,6.5-2.3l0.4-0.3l-1.3-1.2l-1.3-1.2l-0.4,0.3c-0.5,0.4-0.9,0.6-1.6,0.8
		c-2.7,0.9-5.5,0.1-6.4-1.8c-0.1-0.3-0.3-0.6-0.3-0.8l0-0.3h6.1h6.1l0.1-0.4c0.1-0.6,0-2.7-0.2-3.6
		C195.5,187.2,193.6,185.2,190.5,184.6z M188.4,190.9c-3,0-4.2,0-4.2-0.1c0,0,0.1-0.3,0.3-0.6c0.5-1.1,1.6-1.9,2.9-2.2
		c0.7-0.1,2-0.1,2.6,0.1c1.3,0.4,2.3,1.4,2.5,2.5l0,0.3H188.4z"/>
	<path class="st2" d="M283,184.6c-0.7-0.1-2.7-0.2-3.4-0.1c-3.6,0.5-6.1,2.7-6.8,6.2c-0.2,0.8-0.2,2.6-0.1,3.5
		c0.6,3.8,3,6.2,6.9,6.7c0.7,0.1,1.2,0.1,2.1,0.1c1.8-0.1,3.1-0.4,4.5-1.1c0.7-0.4,1.9-1.2,1.9-1.4c0,0-0.6-0.6-1.2-1.3l-1.2-1.2
		l-0.4,0.3c-0.7,0.5-1.6,0.9-2.7,1.1c-1.9,0.3-3.7-0.1-4.8-1.2c-0.4-0.5-0.8-1.1-0.9-1.6l-0.1-0.3h6.1h6.1l0.1-0.5
		c0.2-1.8-0.2-3.9-0.9-5.4C287,186.3,285.3,185.1,283,184.6z M280.9,190.9c-3.3,0-4.1,0-4.1-0.1c0-0.3,0.5-1.1,0.9-1.5
		c1-1.1,2.7-1.6,4.5-1.2c1.5,0.3,2.4,1.1,2.8,2.3c0.1,0.2,0.1,0.5,0.1,0.5C285,190.9,283.1,190.9,280.9,190.9z"/>
	<path class="st2" d="M431.7,185c-0.3-0.1-0.7-0.3-1-0.4c-0.7-0.2-2.4-0.2-3.1-0.1c-1,0.2-1.9,0.7-2.5,1.5c-0.2,0.2-0.3,0.4-0.4,0.4
		c0,0-0.1-0.3-0.2-0.8l-0.1-0.8l-1.9,0l-1.9,0v7.9v7.9h2h2v-4.4c0-4.8,0-5.1,0.4-5.9c0.6-1.2,2.1-2,3.7-1.9c0.8,0.1,1.4,0.3,2,0.7
		c0.3,0.2,0.5,0.3,0.5,0.3c0.1-0.1,1.7-3.3,1.7-3.4C433.1,185.9,432.2,185.3,431.7,185z"/>
	<path class="st2" d="M216,184.8c-0.7-0.2-2.4-0.3-3-0.2c-2,0.3-3.6,1-4.9,2.3c-1,1-1.6,2.1-2.1,3.7c-0.2,0.7-0.2,0.9-0.2,2.2
		c0,1.3,0,1.6,0.2,2.2c0.9,3.2,3.1,5.3,6.3,5.8c0.9,0.1,2.5,0.1,3.4,0c4.2-0.7,6.9-4.4,6.5-8.9C221.8,188.3,219.4,185.6,216,184.8z
		 M213.1,197.3c-1.6-0.3-2.8-1.5-3.2-3.3c-0.2-0.7-0.1-2.2,0.1-2.9c0.8-2.2,3-3.4,5.2-2.7c1.7,0.5,3,2.4,3,4.4
		C218.2,195.8,215.9,197.8,213.1,197.3z"/>
	<path class="st2" d="M235.9,184.8c-0.8-0.2-2.7-0.3-3.5-0.1c-1.4,0.3-2.8,1.1-3.5,2l-0.3,0.3l-0.1-0.9c-0.1-0.5-0.1-1-0.1-1.1
		c0-0.1-0.2-0.1-1.9-0.1h-1.8v11.2v11.2h2h2v-4.1V199l0.4,0.3c0.7,0.7,1.7,1.2,3.1,1.5c0.8,0.2,2.7,0.2,3.6,0
		c3.5-0.8,5.7-3.4,6.1-7.2c0.1-1.7-0.2-3.4-0.9-4.8C240,186.8,238.3,185.4,235.9,184.8z M237,195.5c-1.5,2-4.8,2.3-6.6,0.4
		c-1.7-1.7-1.7-4.6,0-6.3c0.3-0.3,0.7-0.6,0.9-0.7c1-0.5,2.4-0.7,3.5-0.4c0.8,0.2,1.3,0.5,1.9,1.1
		C238.2,191.2,238.4,193.7,237,195.5z"/>
	<path class="st2" d="M408.6,184.7c-3.2,0.4-5.7,2.6-6.6,5.7c-0.5,2-0.4,4.3,0.4,6.1c0.6,1.2,1.6,2.5,2.7,3.2
		c0.7,0.4,1.5,0.8,2.4,1.1c0.7,0.2,0.9,0.2,2.4,0.2s1.7,0,2.4-0.2c1.5-0.4,2.6-1.1,3.6-2.1c1-1.1,1.6-2.2,2-3.7
		c0.1-0.6,0.2-0.9,0.2-2.1c0-1.3,0-1.5-0.2-2.2C416.7,186.5,413,184.1,408.6,184.7z M412.4,196.6c-1.4,1.1-3.6,1-5,0
		c-0.6-0.5-1.1-1.3-1.4-2.1c-0.2-0.6-0.2-0.8-0.2-1.6c0-0.8,0-1.1,0.2-1.6c0.5-1.5,1.7-2.6,3.1-2.9c0.7-0.1,0.8-0.1,1.4,0
		c2.1,0.3,3.7,2.5,3.6,4.8C414,194.6,413.4,195.8,412.4,196.6z"/>
	<path class="st2" d="M268.5,187.9c-0.9-1.9-2.5-2.9-5-3.2c-0.9-0.1-2.1,0-2.9,0.2c-1,0.3-2.2,1.1-2.8,2c-0.2,0.3-0.4,0.5-0.4,0.5
		c0,0-0.1-0.2-0.2-0.4c-0.6-1-1.4-1.7-2.5-2.1c-0.5-0.2-0.8-0.2-1.7-0.2c-0.9,0-1.2,0-1.7,0.1c-0.9,0.2-1.6,0.6-2.2,1.3l-0.5,0.5
		l-0.1-0.8c-0.1-0.4-0.1-0.8-0.1-0.9c0-0.1-0.4-0.1-1.9-0.1h-1.8v7.9v7.9h2h2v-4.5c0-4.9,0-5,0.4-5.9c0.3-0.6,1-1.3,1.6-1.6
		c0.5-0.2,0.6-0.3,1.3-0.3c0.6,0,0.8,0,1.2,0.2c0.6,0.3,1.2,0.8,1.5,1.4c0.5,1,0.5,0.9,0.5,6l0,4.7h1.9h1.9l0-4.6
		c0-4.5,0-4.6,0.2-5.1c0.6-1.7,1.8-2.6,3.4-2.5c1.3,0.1,2.1,0.8,2.5,2.3c0.1,0.4,0.1,1,0.2,5.2l0,4.8h2h1.9v-4.9
		c0-2.8,0-5.1-0.1-5.4C269.1,189.5,268.8,188.6,268.5,187.9z"/>
	<path class="st2" d="M301.7,184.7c-0.6-0.1-1.7-0.1-2.2,0c-1.1,0.2-2.2,0.7-3.3,1.6l-0.7,0.6l-0.1-0.9c-0.1-0.5-0.1-0.9-0.1-1
		c0-0.1-0.2-0.1-1.8-0.1h-1.8v7.9v7.9h1.9h2l0-4.5c0-4.1,0-4.5,0.2-4.9c0.7-2.1,2.4-3.3,4.4-3c1.5,0.2,2.5,1.1,3,2.7
		c0.1,0.4,0.1,0.8,0.2,5.1l0,4.6h2h2v-4.1c0-2.2,0-4.5-0.1-5.1C306.9,187.7,304.9,185.2,301.7,184.7z"/>
	<polygon class="st2" points="434.5,184.8 434.5,192.7 434.5,200.7 436.5,200.7 438.5,200.7 438.5,192.7 438.5,184.8 436.5,184.8 	
		"/>
	<path class="st2" d="M176.8,184.9l-2.2,0l-1.1,2.6c-0.6,1.4-1.6,4-2.2,5.8c-0.6,1.8-1.2,3.2-1.2,3.2c0,0-0.5-1.5-1.2-3.2
		c-0.6-1.8-1.7-4.4-2.2-5.8l-1.1-2.6h-2.2c-1.2,0-2.2,0-2.2,0s1.5,3.6,3.4,7.9l3.4,7.9l2.1,0l2.1,0l3.3-7.8c1.8-4.3,3.3-7.9,3.4-7.9
		C178.9,184.9,178.8,184.9,176.8,184.9z"/>
	<path class="st2" d="M364,184.9l0,4.4c0,4,0,4.5-0.2,4.9c-0.6,2.1-2.4,3.3-4.4,3c-1.2-0.2-2.2-0.9-2.7-1.9c-0.4-0.9-0.5-1.1-0.5-6
		v-4.4h-2h-2v4.4c0,2.4,0,4.7,0.1,5.1c0.4,3.4,2,5.6,4.8,6.4c0.4,0.1,0.8,0.1,1.8,0.1c1.1,0,1.3,0,1.9-0.2c0.9-0.3,1.9-0.8,2.6-1.4
		c0.4-0.3,0.7-0.5,0.7-0.5c0,0,0.1,0.4,0.1,1l0.1,1h1.8h1.8v-7.9v-7.9h-1.9H364z"/>
	<path class="st2" d="M466.5,184.9l-1.5,3.6c-0.8,2-1.8,4.5-2.2,5.6L462,196l-1-2.8c-0.5-1.5-1.4-4.1-1.9-5.6l-1-2.8h-2.3
		c-1.3,0-2.3,0-2.3,0.1c0,0,1.4,3.5,3.1,7.7l3.1,7.7l-1.5,3.4l-1.5,3.4l2.2,0c1.7,0,2.2,0,2.2-0.1c0.1-0.2,9.5-22.1,9.5-22.2
		c0-0.1-0.6-0.1-2.2-0.1H466.5z"/>
</g>
</svg>
