<svg id="Layer_1" data-name="Layer 1" xmlns="http://www.w3.org/2000/svg" viewBox="0 0 128.0471 133.8767"><defs><style>.cls-1{fill:#6e7682;}</style></defs><path class="cls-1" d="M21.9887,58.4666a51.3842,51.3842,0,0,1-6.6431,10.445C14.1,70.42,11.8117,74.1613,8.63,78.8947A5.3731,5.3731,0,0,0,7.5406,83.07c.633,2.9344,4.7789,5.3491,10.1647,4.7193q-.5785,4.4244-1.1572,8.8488a7.4225,7.4225,0,0,0,3.88,2.768,9.6162,9.6162,0,0,0-2.9735,6.3874L22.9691,108.3c-3.214,6.0354-2.8765,12.7174.7261,16.6991a11.7653,11.7653,0,0,0,6.1714,3.4487l35.9393,1.0891a19.9286,19.9286,0,0,1,4.5378,7.6235,19.0941,19.0941,0,0,1,.6925,3.0108,140.81,140.81,0,0,0,35.5952-4.2445A140.7128,140.7128,0,0,0,135.5065,125.18a27.9389,27.9389,0,0,1-14.1579-18.5142l.9076-15.4285c-13.5957,18.3088-36.4981,26.8891-57.8324,21.77C40.1566,107.184,22.3527,84.6994,21.9887,58.4666Z" transform="translate(-7.4594 -6.2997)"/><path class="cls-1" d="M104.1278,12.64a4.2552,4.2552,0,0,1-8.5088.1221A46.15,46.15,0,0,0,45.1873,26.7508a4.262,4.262,0,1,1-3.8605-2.4517,3.9132,3.9132,0,0,1,.7321.0665A50.0862,50.0862,0,0,1,97.35,9.2007a4.2631,4.2631,0,0,1,6.7782,3.4389Z" transform="translate(-7.4594 -6.2997)"/><path class="cls-1" d="M125.7718,78.2463a4.264,4.264,0,1,1-3.5943-1.9636.84.84,0,0,1,.1664.0111,46.125,46.125,0,0,0-10.1174-53.1495,4.3233,4.3233,0,0,1-1.8527.4215,4.2939,4.2939,0,1,1,4.2046-3.6054A50.08,50.08,0,0,1,125.7718,78.2463Z" transform="translate(-7.4594 -6.2997)"/><path class="cls-1" d="M116.2539,85.4734A46.132,46.132,0,0,1,38.6884,35.6955l-3.31-2.1244A50.0591,50.0591,0,0,0,119.56,87.5953Z" transform="translate(-7.4594 -6.2997)"/><polygon class="cls-1" points="57.493 52.48 54.975 62.323 60.247 62.323 57.729 52.48 57.493 52.48"/><path class="cls-1" d="M52.5278,49.298V84.0543a3.4061,3.4061,0,0,0,3.3155,3.49H88.8622a3.4061,3.4061,0,0,0,3.3155-3.49V49.298a3.4061,3.4061,0,0,0-3.3155-3.49H55.8433A3.4061,3.4061,0,0,0,52.5278,49.298ZM69.6015,76.0333,68.378,71.25H61.7624l-1.2236,4.7836H57.7806l5.3851-19.632h3.8089L72.36,76.0333ZM86.5061,59.0281H82.1849V73.4065h4.3212v2.6268H75.158V73.4065h4.2949V59.0281H75.158V56.4013H86.5061Z" transform="translate(-7.4594 -6.2997)"/><circle class="cls-1" cx="33.7552" cy="37.8439" r="1.2804"/><circle class="cls-1" cx="41.7626" cy="28.3898" r="1.2804"/><circle class="cls-1" cx="56.3391" cy="23.857" r="1.2804"/><circle class="cls-1" cx="60.4646" cy="18.4177" r="1.2804"/><circle class="cls-1" cx="59.7082" cy="37.1426" r="1.2804"/><circle class="cls-1" cx="64.8934" cy="15.8279" r="1.2804"/><circle class="cls-1" cx="64.9536" cy="27.1095" r="1.2804"/><circle class="cls-1" cx="76.76" cy="25.1373" r="1.2804"/><circle class="cls-1" cx="76.76" cy="34.8507" r="1.2804"/><circle class="cls-1" cx="84.7183" cy="21.741" r="1.2804"/><circle class="cls-1" cx="97.5228" cy="38.4229" r="1.2804"/><circle class="cls-1" cx="94.7285" cy="43.1015" r="1.2804"/><circle class="cls-1" cx="97.2496" cy="45.9893" r="1.2804"/><circle class="cls-1" cx="104.8476" cy="50.1016" r="1.2804"/><circle class="cls-1" cx="99.7707" cy="59.0961" r="1.2804"/><circle class="cls-1" cx="89.5488" cy="61.6659" r="1.2804"/><circle class="cls-1" cx="103.2086" cy="63.3619" r="1.2804"/><circle class="cls-1" cx="99.2206" cy="69.7336" r="1.2804"/><circle class="cls-1" cx="96.9287" cy="76.38" r="1.2804"/><circle class="cls-1" cx="100.0457" cy="80.0928" r="1.2804"/><polygon class="cls-1" points="46.58 41.666 41.912 39.618 38.314 39.992 33.579 38.353 33.932 37.335 38.44 38.896 42.085 38.518 47.012 40.679 46.58 41.666"/><polygon class="cls-1" points="49.993 40.297 44.707 36.239 44.707 31.009 41.477 28.981 42.049 28.069 45.784 30.414 45.784 35.707 50.65 39.443 49.993 40.297"/><polygon class="cls-1" points="51.4 39.886 51.254 34.863 56.136 31.186 55.904 23.874 56.98 23.84 57.23 31.709 52.347 35.388 52.477 39.854 51.4 39.886"/><polygon class="cls-1" points="56.293 39.87 55.216 39.87 55.216 35.466 60.33 31.854 59.892 18.435 60.968 18.4 61.425 32.399 56.293 36.023 56.293 39.87"/><rect class="cls-1" x="59.1698" y="37.1427" width="1.0772" height="2.7272"/><rect class="cls-1" x="64.358" y="27.1092" width="1.0772" height="12.3993"/><polygon class="cls-1" points="69.552 39.87 68.474 39.87 68.474 23.128 64.355 20.77 64.355 15.828 65.432 15.828 65.432 20.145 69.552 22.503 69.552 39.87"/><polygon class="cls-1" points="73.494 39.87 72.417 39.87 72.417 32.169 76.222 29.785 76.222 25.137 77.299 25.137 77.299 30.382 73.494 32.766 73.494 39.87"/><rect class="cls-1" x="76.2219" y="34.8505" width="1.0772" height="5.0194"/><polygon class="cls-1" points="80.622 39.884 80.43 32.722 83.976 30.428 84.18 21.729 85.257 21.754 85.038 31.023 81.524 33.297 81.699 39.856 80.622 39.884"/><polygon class="cls-1" points="83.614 41.81 82.81 41.093 87.564 35.764 91.621 38.203 97.502 37.968 97.544 39.044 91.342 39.291 87.774 37.147 83.614 41.81"/><polygon class="cls-1" points="89.086 46.528 83.438 46.528 83.438 45.451 88.451 45.451 90.05 42.563 94.729 42.563 94.729 43.64 90.685 43.64 89.086 46.528"/><polygon class="cls-1" points="90.678 50.64 83.438 50.64 83.438 49.563 90.057 49.563 92.447 45.451 97.249 45.451 97.249 46.528 93.068 46.528 90.678 50.64"/><polygon class="cls-1" points="83.921 54.458 83.9 53.381 102.908 53.02 104.358 49.876 105.337 50.327 103.602 54.085 83.921 54.458"/><polygon class="cls-1" points="95.779 60.115 93.706 57.674 84.201 57.94 84.171 56.863 94.192 56.583 96.246 59.001 99.732 58.746 99.81 59.82 95.779 60.115"/><rect class="cls-1" x="84.1862" y="61.1271" width="5.3628" height="1.0772"/><polygon class="cls-1" points="92.584 66.146 83.911 66.146 83.911 65.069 92.106 65.069 94.141 62.823 103.209 62.823 103.209 63.901 94.618 63.901 92.584 66.146"/><rect class="cls-1" x="84.1862" y="69.195" width="15.0344" height="1.0772"/><polygon class="cls-1" points="96.928 76.918 92.098 76.918 89.348 74.543 83.911 74.543 83.911 73.465 89.75 73.465 92.5 75.841 96.928 75.841 96.928 76.918"/><polygon class="cls-1" points="100.045 80.632 90.513 80.632 87.579 77.606 83.438 77.606 83.438 76.529 88.035 76.529 90.969 79.555 100.045 79.555 100.045 80.632"/></svg>