<svg id="Layer_1" data-name="Layer 1" xmlns="http://www.w3.org/2000/svg" viewBox="0 0 157.0406 150"><defs><style>.cls-1{fill:#6c7582;}.cls-2{fill:#6c7583;}</style></defs><path class="cls-1" d="M137.34,63.5546a43.6039,43.6039,0,0,1-12.3132-37.59l-.2784-.2773A35.4363,35.4363,0,0,0,174.94,75.7245,43.6032,43.6032,0,0,1,137.34,63.5546Z" transform="translate(-23.4848 -19)"/><path class="cls-1" d="M135.4492,96.2565l-9.7618-33.6091L105.2233,96.2565Z" transform="translate(-23.4848 -19)"/><path class="cls-1" d="M23.4848,25.6873V169h27.329V25.6873ZM43.2126,96.375H31.0859V84.2483H43.2126Zm0-25.7764H31.0859V58.4719H43.2126Zm0-25.7762H31.0859V32.6957H43.2126Z" transform="translate(-23.4848 -19)"/><path class="cls-1" d="M59.4944,83.1644V167.41H76.0831V83.1644Zm13.0124,51.5589H63.0707v-9.436h9.4361Zm0-19.8771H63.0707V105.41h9.4361Zm0-18.5634H63.0707V86.8467h9.4361Z" transform="translate(-23.4848 -19)"/><path class="cls-1" d="M84.7638,100.6043v66.7085h33.0917V145.6354h21.0311v21.6774h33.0918V100.6043Zm21.7651,21.6506H94.4022V110.1282h12.1267Zm27.24,0H121.6419V110.1282h12.1267Zm28.5714,0H150.2133V110.1282H162.34Z" transform="translate(-23.4848 -19)"/><rect class="cls-2" x="145.8144" y="7.7383" width="2.4315" height="39.1497" transform="translate(91.5797 154.4024) rotate(-88.1813)"/><rect class="cls-2" x="135.728" y="45.1438" width="37.925" height="2.4329" transform="translate(-9.4511 106.6955) rotate(-46.1078)"/><rect class="cls-2" x="171.9011" y="34.9516" width="2.4306" height="39.5884" transform="translate(-25.8687 -10.7947) rotate(-2.6966)"/><circle class="cls-2" cx="147.1611" cy="9.8795" r="9.8795"/></svg>