<svg id="Layer_1" data-name="Layer 1" xmlns="http://www.w3.org/2000/svg" viewBox="0 0 123.6954 136.0798"><defs><style>.cls-1{fill:#6d7683;}</style></defs><polygon class="cls-1" points="123.673 31.071 123.37 36.634 96.89 51.947 95.07 53.019 92.602 51.583 66.689 36.594 66.446 31.071 95.07 46.991 123.673 31.071"/><polygon class="cls-1" points="95.068 32.704 66.46 17.123 95.686 0 123.675 17.123 95.068 32.704"/><polygon class="cls-1" points="123.671 17.859 123.368 23.422 96.888 38.735 95.068 39.807 92.6 38.371 66.687 23.381 66.444 17.859 95.068 33.779 123.671 17.859"/><path class="cls-1" d="M90.4519,32.9634" transform="translate(-15.0246 -6.623)"/><path class="cls-1" d="M110.0944,43.8882" transform="translate(-15.0246 -6.623)"/><polygon class="cls-1" points="120.258 28.707 96.89 42.221 95.07 43.293 92.602 41.857 69.976 28.769 66.462 30.336 95.07 45.916 123.678 30.336 120.258 28.707"/><polygon class="cls-1" points="123.669 46.776 123.365 52.339 96.886 67.652 95.065 68.724 92.598 67.288 66.684 52.298 66.442 46.776 95.065 62.696 123.669 46.776"/><path class="cls-1" d="M90.4476,48.6682" transform="translate(-15.0246 -6.623)"/><path class="cls-1" d="M110.09,59.593" transform="translate(-15.0246 -6.623)"/><polygon class="cls-1" points="120.254 44.412 96.886 57.926 95.065 58.998 92.598 57.562 69.972 44.474 66.458 46.04 95.065 61.621 123.673 46.04 120.254 44.412"/><polygon class="cls-1" points="123.675 62.476 123.372 68.039 96.892 83.352 95.072 84.424 92.604 82.988 92.523 82.948 92.523 76.98 95.072 78.396 123.675 62.476"/><path class="cls-1" d="M90.4454,64.373" transform="translate(-15.0246 -6.623)"/><path class="cls-1" d="M110.0879,75.2978" transform="translate(-15.0246 -6.623)"/><polygon class="cls-1" points="123.675 61.748 95.072 77.324 92.523 75.928 92.523 73.218 92.604 73.258 95.072 74.694 96.892 73.622 120.257 60.109 123.675 61.748"/><polygon class="cls-1" points="123.675 78.194 123.372 83.757 96.892 99.07 95.072 100.142 92.604 98.706 92.523 98.665 92.523 92.698 95.072 94.114 123.675 78.194"/><path class="cls-1" d="M90.46,80.0778" transform="translate(-15.0246 -6.623)"/><path class="cls-1" d="M110.1024,91.0027" transform="translate(-15.0246 -6.623)"/><polygon class="cls-1" points="123.695 77.446 95.072 93.022 92.523 91.626 92.523 88.935 92.604 88.976 95.072 90.412 96.892 89.34 120.257 75.827 123.695 77.446"/><polygon class="cls-1" points="123.655 93.891 123.351 99.454 96.872 114.768 95.051 115.84 92.584 114.403 92.523 114.363 92.523 108.395 95.051 109.811 123.655 93.891"/><path class="cls-1" d="M90.4433,95.7827" transform="translate(-15.0246 -6.623)"/><path class="cls-1" d="M110.0858,106.7075" transform="translate(-15.0246 -6.623)"/><polygon class="cls-1" points="123.675 93.163 95.051 108.739 92.523 107.364 92.523 104.633 92.584 104.673 95.051 106.11 96.872 105.038 120.257 91.525 123.675 93.163"/><polygon class="cls-1" points="90.392 82.722 90.088 88.285 63.609 103.598 61.789 104.67 59.321 103.234 33.408 88.244 33.165 82.722 61.789 98.642 90.392 82.722"/><polygon class="cls-1" points="61.786 84.355 33.179 68.774 62.545 51.82 90.394 68.774 61.786 84.355"/><polygon class="cls-1" points="90.39 69.51 90.086 75.073 63.607 90.386 61.786 91.458 59.319 90.022 33.405 75.032 33.163 69.51 61.786 85.43 90.39 69.51"/><path class="cls-1" d="M57.1706,84.6143" transform="translate(-15.0246 -6.623)"/><path class="cls-1" d="M76.8131,95.5391" transform="translate(-15.0246 -6.623)"/><polygon class="cls-1" points="86.977 80.358 63.609 93.872 61.789 94.944 59.321 93.508 36.695 80.42 33.181 81.986 61.789 97.567 90.396 81.986 86.977 80.358"/><polygon class="cls-1" points="90.388 98.427 90.084 103.99 63.605 119.303 61.784 120.375 59.316 118.939 33.403 103.949 33.16 98.427 61.784 114.347 90.388 98.427"/><path class="cls-1" d="M57.1663,100.3191" transform="translate(-15.0246 -6.623)"/><path class="cls-1" d="M76.8088,111.2439" transform="translate(-15.0246 -6.623)"/><polygon class="cls-1" points="86.973 96.063 63.605 109.577 61.784 110.649 59.316 109.213 36.691 96.125 33.176 97.691 61.784 113.272 90.392 97.691 86.973 96.063"/><polygon class="cls-1" points="90.386 114.132 90.082 119.695 63.603 135.008 61.782 136.08 59.314 134.644 33.401 119.654 33.158 114.132 61.782 130.052 90.386 114.132"/><path class="cls-1" d="M57.1642,116.0239" transform="translate(-15.0246 -6.623)"/><path class="cls-1" d="M76.8067,126.9487" transform="translate(-15.0246 -6.623)"/><polygon class="cls-1" points="86.971 111.768 63.603 125.282 61.782 126.354 59.314 124.918 36.689 111.83 33.174 113.396 61.782 128.977 90.39 113.396 86.971 111.768"/><polygon class="cls-1" points="57.239 47.703 56.935 53.266 30.456 68.579 28.635 69.651 26.167 68.215 0.254 53.226 0.012 47.703 28.635 63.623 57.239 47.703"/><polygon class="cls-1" points="28.633 49.336 0.025 33.756 29.361 16.829 57.241 33.756 28.633 49.336"/><polygon class="cls-1" points="57.237 34.491 56.933 40.054 30.454 55.367 28.633 56.439 26.165 55.003 0.252 40.014 0.009 34.491 28.633 50.411 57.237 34.491"/><path class="cls-1" d="M24.0174,49.5956" transform="translate(-15.0246 -6.623)"/><path class="cls-1" d="M43.66,60.52" transform="translate(-15.0246 -6.623)"/><polygon class="cls-1" points="53.824 45.34 30.456 58.853 28.635 59.926 26.167 58.489 3.542 45.402 0.027 46.968 28.635 62.548 57.243 46.968 53.824 45.34"/><polygon class="cls-1" points="31.334 77.816 31.334 83.784 30.444 84.289 28.624 85.361 26.156 83.925 0.243 68.936 0 63.413 28.624 79.333 31.334 77.816"/><path class="cls-1" d="M24.0131,65.3" transform="translate(-15.0246 -6.623)"/><path class="cls-1" d="M43.6556,76.2252" transform="translate(-15.0246 -6.623)"/><polygon class="cls-1" points="31.334 74.054 31.334 76.784 28.624 78.261 0.02 62.665 3.54 61.107 26.156 74.195 28.624 75.631 30.444 74.559 31.334 74.054"/><polygon class="cls-1" points="31.334 93.514 31.334 99.481 30.444 99.987 28.624 101.059 26.156 99.623 0.243 84.633 0 79.111 28.624 95.031 31.334 93.514"/><path class="cls-1" d="M24.0109,81.0052" transform="translate(-15.0246 -6.623)"/><path class="cls-1" d="M43.6534,91.93" transform="translate(-15.0246 -6.623)"/><polygon class="cls-1" points="31.334 89.751 31.334 92.482 28.624 93.959 0.02 78.382 3.54 76.805 26.156 89.893 28.624 91.329 30.444 90.257 31.334 89.751"/><polygon class="cls-1" points="31.334 109.211 31.334 115.179 30.444 115.684 28.624 116.756 26.156 115.32 0.243 100.331 0 94.808 28.624 110.728 31.334 109.211"/><path class="cls-1" d="M24.0088,96.7083" transform="translate(-15.0246 -6.623)"/><path class="cls-1" d="M43.6513,107.6331" transform="translate(-15.0246 -6.623)"/><polygon class="cls-1" points="31.334 105.469 31.334 108.179 28.624 109.656 0.02 94.08 3.54 92.522 26.156 105.61 28.624 107.047 30.444 105.974 31.334 105.469"/></svg>