<svg id="Layer_1" data-name="Layer 1" xmlns="http://www.w3.org/2000/svg" viewBox="0 0 108.5807 100"><defs><style>.cls-1{fill:#6d7982;}</style></defs><path class="cls-1" d="M111.4178,124.0372H72.7121a11.7291,11.7291,0,0,1-11.716-11.716V37.679a11.73,11.73,0,0,1,11.716-11.7161h38.7057A11.7292,11.7292,0,0,1,123.1339,37.679v74.6422A11.7287,11.7287,0,0,1,111.4178,124.0372ZM72.7121,33.8861a3.7971,3.7971,0,0,0-3.7929,3.7929v74.6422a3.7977,3.7977,0,0,0,3.7929,3.7929h38.7057a3.7982,3.7982,0,0,0,3.7929-3.7929V37.679a3.7976,3.7976,0,0,0-3.7929-3.7929Z" transform="translate(-14.5532 -25)"/><rect class="cls-1" x="61.1935" y="15.2273" width="27.7141" height="13.9394" rx="3.1277"/><rect class="cls-1" x="61.1935" y="36.0606" width="27.7141" height="13.9394" rx="3.1277"/><rect class="cls-1" x="30.3439" width="10.1146" height="100" rx="3.1915"/><rect class="cls-1" x="15.1719" y="20.9091" width="10.1146" height="79.0909" rx="3.1915"/><rect class="cls-1" y="46.8182" width="10.1146" height="53.1818" rx="3.1915"/></svg>