<svg id="Layer_1" data-name="Layer 1" xmlns="http://www.w3.org/2000/svg" viewBox="0 0 128.15 135.615"><defs><style>.cls-1,.cls-3{fill:#6e7682;}.cls-2{fill:#6d7683;}.cls-3{opacity:0.96;}</style></defs><path class="cls-1" d="M139.075,131.7414V51.0489H129.05l-.0338,4.875H134.2v70.9425H15.8121V55.9239h5.21l.035-4.875H10.925v80.6925H73.0561v7.7633H63.05a2.6163,2.6163,0,0,0-2.62,2.62v.6825H88.8144v-.6825a2.6267,2.6267,0,0,0-2.6325-2.62H76.1761v-7.7633Z" transform="translate(-10.925 -7.1925)"/><path class="cls-1" d="M95.5121,63.8507a6.5494,6.5494,0,0,0-3.6478,1.216l-3.8215-2.6056a11.2836,11.2836,0,0,0,1.39-5.3849,12.7664,12.7664,0,0,0-1.2159-5.2112l1.9107-1.216a6.55,6.55,0,0,0,3.6479,1.216,6.1547,6.1547,0,0,0,6.08-6.08,6.308,6.308,0,0,0-6.08-6.2534,6.1547,6.1547,0,0,0-6.08,6.08,8.7188,8.7188,0,0,0,.3475,2.0845l-1.7371,1.216a11.7414,11.7414,0,0,0-9.0327-4.169,11.8932,11.8932,0,0,0-7.2957,2.4319l-5.5586-5.5586a8.1835,8.1835,0,0,0,.6948-2.953,6.08,6.08,0,1,0-6.08,6.08,8.1835,8.1835,0,0,0,2.953-.6948l5.5586,5.5586a11.8932,11.8932,0,0,0-2.4319,7.2957,12.2954,12.2954,0,0,0,3.3,8.3379L64.94,69.583a5.5485,5.5485,0,0,0-2.4319-.5211,6.08,6.08,0,1,0,6.08,6.08,5.3452,5.3452,0,0,0-1.0422-3.3L71.02,67.4986a11.8442,11.8442,0,0,0,6.08,1.737,12.62,12.62,0,0,0,8.859-3.8215L89.6061,68.02a8.7186,8.7186,0,0,0-.3474,2.0844,6.0822,6.0822,0,1,0,6.2534-6.2534Z" transform="translate(-10.925 -7.1925)"/><rect class="cls-1" x="11.6627" y="112.1547" width="104.2926" height="1.867"/><path class="cls-2" d="M121.3,46.3027l-8.48-.0606a39.27,39.27,0,0,0-2.8054-6.8746l6.05-5.9641a4.13,4.13,0,0,0,.0418-5.84l-10.5031-10.65a4.1287,4.1287,0,0,0-5.8385-.0417l-6.05,5.9641a39.3766,39.3766,0,0,0-6.8321-2.9l.0605-8.478a4.1289,4.1289,0,0,0-4.1-4.1588L67.89,7.1926a4.1287,4.1287,0,0,0-4.1573,4.1l-.06,8.4782a39.368,39.368,0,0,0-6.8764,2.8037l-5.9624-6.0483a4.13,4.13,0,0,0-5.8383-.0435l-10.6507,10.5a4.1328,4.1328,0,0,0-.0417,5.84l5.9626,6.0484a39.2141,39.2141,0,0,0-2.9033,6.8323L28.88,45.6424a4.1288,4.1288,0,0,0-4.1572,4.1l-.1068,14.9571a4.1282,4.1282,0,0,0,4.098,4.1572l8.48.0605a39.0324,39.0324,0,0,0,2.8038,6.8743l-6.0482,5.9628a4.13,4.13,0,0,0-.0417,5.84l10.5,10.6512a4.13,4.13,0,0,0,5.84.0417l6.0452-5.96a39.1356,39.1356,0,0,0,6.84,2.9052l-.06,8.4764a4.1283,4.1283,0,0,0,4.0983,4.1585l14.9536.1068a4.1287,4.1287,0,0,0,4.159-4.1l.06-8.4765a39.14,39.14,0,0,0,6.8811-2.8071l5.9611,6.047a4.13,4.13,0,0,0,5.84.0416l10.6494-10.4983a4.1308,4.1308,0,0,0,.0417-5.8382l-5.9641-6.05a39.0142,39.0142,0,0,0,2.9034-6.8369l8.48.0606a4.1291,4.1291,0,0,0,4.1587-4.1L125.398,50.46A4.1284,4.1284,0,0,0,121.3,46.3027ZM75,90.42a32.8358,32.8358,0,1,1,32.8358-32.8357A32.8357,32.8357,0,0,1,75,90.42Z" transform="translate(-10.925 -7.1925)"/><circle class="cls-3" cx="11.6627" cy="113.0882" r="2.7075"/><circle class="cls-3" cx="26.5617" cy="113.0882" r="2.7075"/><circle class="cls-3" cx="41.4606" cy="113.0882" r="2.7075"/><circle class="cls-3" cx="56.3596" cy="113.0882" r="2.7075"/><circle class="cls-3" cx="71.2585" cy="113.0882" r="2.7075"/><circle class="cls-3" cx="86.1575" cy="113.0882" r="2.7075"/><circle class="cls-3" cx="101.0564" cy="113.0882" r="2.7075"/><circle class="cls-3" cx="115.9554" cy="113.0882" r="2.7075"/></svg>