<svg width="30" height="24" viewBox="0 0 30 24" fill="none" xmlns="http://www.w3.org/2000/svg">
<path d="M14.6457 11.7903C16.3435 11.7903 17.7313 10.4025 17.7313 8.70471C17.7313 7.00687 16.3435 5.61908 14.6457 5.61908C12.9479 5.61908 11.5601 7.00687 11.5601 8.70471C11.5601 10.4025 12.9479 11.7903 14.6457 11.7903Z" fill="#C4D4EC"/>
<path d="M17.3327 13.311L16.1221 17.4449H15.561L15.1181 14.2412H14.6604H14.2028L13.7599 17.4449H13.1988L11.9882 13.311C9.06497 14.2412 6.98328 16.6477 6.98328 19.4823C6.98328 19.7923 7.0128 20.0876 7.0571 20.3829C8.85828 22.3022 11.501 24.0148 14.4833 24.0148C17.5689 24.0148 20.3888 22.1841 22.3081 20.191C22.3376 19.9547 22.3524 19.7333 22.3524 19.4971C22.3376 16.6476 20.2559 14.2412 17.3327 13.311Z" fill="#C4D4EC"/>
<path d="M15.1033 13.311H14.188V13.9163H15.1033V13.311Z" fill="#C4D4EC"/>
<path d="M7.67718 6.26867C9.37502 6.26867 10.7628 4.88088 10.7628 3.18304C10.7628 1.48521 9.38978 0.0974121 7.67718 0.0974121C5.96458 0.0974121 4.59155 1.48521 4.59155 3.18304C4.59155 4.88088 5.97935 6.26867 7.67718 6.26867Z" fill="#C4D4EC"/>
<path d="M8.14961 6.88879H7.23425V7.49411H8.14961V6.88879Z" fill="#C4D4EC"/>
<path d="M22.308 6.26867C24.0059 6.26867 25.3937 4.88088 25.3937 3.18304C25.3937 1.48521 24.0206 0.0974121 22.308 0.0974121C20.6102 0.0974121 19.2224 1.48521 19.2224 3.18304C19.2224 4.88088 20.6102 6.26867 22.308 6.26867Z" fill="#C4D4EC"/>
<path d="M22.7657 6.88879H21.8503V7.49411H22.7657V6.88879Z" fill="#C4D4EC"/>
<path d="M13.3907 12.2775C11.9439 11.7756 10.9104 10.3878 10.9104 8.76377C10.9104 8.20274 11.0433 7.65648 11.2648 7.18404C10.9695 7.05117 10.6742 6.93306 10.3642 6.82971L9.15354 10.9636H8.59252L8.14961 7.77459H7.67717H7.21949L6.77658 10.9636H6.21555L5.00492 6.82971C2.08169 7.77459 0 10.1811 0 13.001C0 13.311 0.0295276 13.6063 0.0738189 13.9016C1.59449 15.5256 3.70571 16.9872 6.11221 17.4153C6.59941 16.5148 7.11614 15.8799 7.36713 15.5846C7.73622 15.1565 9.8622 12.7795 13.3907 12.2775Z" fill="#C4D4EC"/>
<path d="M24.9951 6.84448L23.7845 10.9783H23.2234L22.7805 7.7746H22.3228H21.8504L21.4075 10.9783H20.8465L19.6358 6.84448C19.1043 7.02165 18.6024 7.22834 18.1299 7.49409C18.2776 7.89271 18.3514 8.3061 18.3514 8.74901C18.3514 10.3878 17.2884 11.7903 15.812 12.2776C17.4065 12.499 20.2264 13.2372 22.249 15.8504C22.4409 16.0866 22.8543 16.6476 23.2677 17.4596C25.9104 17.0905 28.2874 15.4665 29.9557 13.7096C29.9852 13.4734 30 13.252 30 13.0157C30 10.1811 27.9183 7.7746 24.9951 6.84448Z" fill="#C4D4EC"/>
</svg>
