<svg width="31" height="41" viewBox="0 0 31 41" fill="none" xmlns="http://www.w3.org/2000/svg">
<g clip-path="url(#clip0_130_1371)">
<path d="M30.3608 41C30.2052 41 30.069 40.9028 30.0106 40.7666L18.1235 11.9533H13.3764L1.50867 40.7471C1.43085 40.9417 1.19739 41.0389 1.00284 40.9611C0.808283 40.8833 0.711007 40.6498 0.788828 40.4553L12.7538 11.428C12.8122 11.2724 12.9484 11.1946 13.104 11.1946H18.3764C18.532 11.1946 18.6682 11.2919 18.7266 11.428L30.711 40.4553C30.7888 40.6498 30.6916 40.8833 30.497 40.9611C30.4581 40.9806 30.4192 41 30.3608 41Z" fill="#C4D4EC"/>
<path d="M15.7501 6.17512C14.1742 6.17512 12.8901 4.89107 12.8901 3.3152C12.8901 1.73932 14.1742 0.474731 15.7501 0.474731C17.3259 0.474731 18.61 1.75878 18.61 3.33465C18.61 4.91053 17.3259 6.17512 15.7501 6.17512ZM15.7501 1.25294C14.6022 1.25294 13.6683 2.18679 13.6683 3.33465C13.6683 4.48251 14.6022 5.41637 15.7501 5.41637C16.8979 5.41637 17.8318 4.48251 17.8318 3.33465C17.8318 2.18679 16.8979 1.25294 15.7501 1.25294Z" fill="#C4D4EC"/>
<path d="M21.353 11.3502C19.7577 11.3502 18.4736 10.0467 18.4736 8.47087C18.4736 6.89499 19.7771 5.59149 21.353 5.59149C21.567 5.59149 21.7421 5.76659 21.7421 5.9806V10.9806C21.7421 11.1751 21.567 11.3502 21.353 11.3502ZM20.9639 6.38916C19.9911 6.56425 19.2518 7.43974 19.2518 8.47087C19.2518 9.502 19.9911 10.358 20.9639 10.5526V6.38916Z" fill="#C4D4EC"/>
<path d="M23.5321 9.50202C22.9679 9.50202 22.501 9.03509 22.501 8.47089C22.501 7.90668 22.9679 7.43976 23.5321 7.43976C24.0963 7.43976 24.5632 7.90668 24.5632 8.47089C24.5632 9.03509 24.0963 9.50202 23.5321 9.50202ZM23.5321 8.21797C23.3959 8.21797 23.2792 8.3347 23.2792 8.47089C23.2792 8.60707 23.3959 8.72381 23.5321 8.72381C23.6683 8.72381 23.785 8.60707 23.785 8.47089C23.785 8.3347 23.6683 8.21797 23.5321 8.21797Z" fill="#C4D4EC"/>
<path d="M23.0651 8.41251C23.0067 8.41251 22.9484 8.39305 22.89 8.3736L21.1779 7.4592C20.9834 7.36192 20.925 7.12846 21.0223 6.93391C21.1196 6.73936 21.353 6.68099 21.5476 6.77827L23.2596 7.69266C23.4542 7.78994 23.5126 8.0234 23.4153 8.21795C23.3375 8.33469 23.2013 8.41251 23.0651 8.41251Z" fill="#C4D4EC"/>
<path d="M21.3529 10.2218C21.2168 10.2218 21.0806 10.144 21.0028 10.0078C20.9055 9.81326 20.9638 9.57979 21.1584 9.48252L22.8705 8.56812C23.065 8.47085 23.2985 8.52921 23.3957 8.72376C23.493 8.91832 23.4347 9.15178 23.2401 9.24906L21.528 10.1635C21.4891 10.2024 21.4113 10.2218 21.3529 10.2218Z" fill="#C4D4EC"/>
<path d="M22.326 21.4475C22.2481 21.4475 22.1703 21.428 22.0925 21.3697L11.9758 14.0934C11.8007 13.9572 11.7618 13.7237 11.8785 13.5486C11.9952 13.3735 12.2481 13.3346 12.4232 13.4514L22.54 20.7276C22.7151 20.8638 22.754 21.0973 22.6372 21.2724C22.5594 21.3891 22.4427 21.4475 22.326 21.4475Z" fill="#C4D4EC"/>
<path d="M6.64505 27.5564C6.48941 27.5564 6.33377 27.4592 6.2754 27.3035C6.19758 27.109 6.29486 26.8755 6.48941 26.7977L22.1703 20.6887C22.3649 20.6109 22.5984 20.7082 22.6762 20.9027C22.754 21.0973 22.6567 21.3308 22.4622 21.4086L6.78124 27.537C6.74233 27.5564 6.68396 27.5564 6.64505 27.5564Z" fill="#C4D4EC"/>
<path d="M28.4544 36.214C28.4155 36.214 28.3571 36.1946 28.3182 36.1946L6.48941 27.537C6.29486 27.4592 6.19758 27.2257 6.2754 27.0312C6.35322 26.8366 6.58668 26.7393 6.78124 26.8171L28.61 35.4747C28.8046 35.5526 28.9019 35.786 28.824 35.9806C28.7657 36.1168 28.61 36.214 28.4544 36.214Z" fill="#C4D4EC"/>
<path d="M9.17413 21.4475C9.05739 21.4475 8.94066 21.3891 8.86284 21.2919C8.72665 21.1168 8.78502 20.8638 8.96012 20.7471L19.0768 13.4708C19.2519 13.3541 19.5049 13.393 19.6216 13.5681C19.7578 13.7432 19.6994 13.9961 19.5243 14.1129L9.40759 21.3891C9.32977 21.428 9.25195 21.4475 9.17413 21.4475Z" fill="#C4D4EC"/>
<path d="M24.8551 27.5564C24.8162 27.5564 24.7578 27.5565 24.7189 27.537L9.03799 21.428C8.84344 21.3502 8.74616 21.1168 8.82398 20.9222C8.9018 20.7277 9.13527 20.6304 9.32982 20.7082L25.0108 26.8171C25.2053 26.895 25.3026 27.1284 25.2248 27.323C25.1664 27.4592 25.0108 27.5564 24.8551 27.5564Z" fill="#C4D4EC"/>
<path d="M3.04568 36.2141C2.89004 36.2141 2.7344 36.1168 2.67603 35.9612C2.59821 35.7666 2.69549 35.5331 2.89004 35.4553L24.7188 26.7977C24.9134 26.7199 25.1469 26.8172 25.2247 27.0117C25.3025 27.2063 25.2052 27.4398 25.0107 27.5176L3.18187 36.1752C3.14296 36.1946 3.0846 36.2141 3.04568 36.2141Z" fill="#C4D4EC"/>
<path d="M18.8628 9.42413H16.3142C16.1001 9.42413 15.925 9.24903 15.925 9.03503V7.90662C15.925 7.69261 16.1001 7.51752 16.3142 7.51752H18.8628C19.0768 7.51752 19.2519 7.69261 19.2519 7.90662V9.03503C19.2519 9.24903 19.0768 9.42413 18.8628 9.42413ZM16.7033 8.64592H18.4737V8.29573H16.7033V8.64592Z" fill="#C4D4EC"/>
<path d="M10.1469 11.3502C9.93291 11.3502 9.75781 11.1751 9.75781 10.9611V5.9806C9.75781 5.76659 9.93291 5.59149 10.1469 5.59149C11.7422 5.59149 13.0263 6.89499 13.0263 8.47087C13.0263 10.0662 11.7422 11.3502 10.1469 11.3502ZM10.536 6.38916V10.5331C11.5088 10.358 12.2481 9.48254 12.2481 8.45141C12.2481 7.43974 11.5088 6.58371 10.536 6.38916Z" fill="#C4D4EC"/>
<path d="M7.9679 9.50202C7.40369 9.50202 6.93677 9.03509 6.93677 8.47089C6.93677 7.90668 7.40369 7.43976 7.9679 7.43976C8.5321 7.43976 8.99902 7.90668 8.99902 8.47089C8.99902 9.03509 8.55155 9.50202 7.9679 9.50202ZM7.9679 8.21797C7.83171 8.21797 7.71498 8.3347 7.71498 8.47089C7.71498 8.60707 7.83171 8.72381 7.9679 8.72381C8.10408 8.72381 8.22081 8.60707 8.22081 8.47089C8.22081 8.3347 8.12354 8.21797 7.9679 8.21797Z" fill="#C4D4EC"/>
<path d="M10.1469 10.2218C10.0885 10.2218 10.0301 10.2024 9.97178 10.1829L8.25971 9.26853C8.06516 9.17125 8.0068 8.93779 8.10407 8.74323C8.20135 8.54868 8.43481 8.49032 8.62936 8.58759L10.3414 9.50199C10.536 9.59927 10.5943 9.83273 10.4971 10.0273C10.4192 10.144 10.2831 10.2218 10.1469 10.2218Z" fill="#C4D4EC"/>
<path d="M8.43473 8.41249C8.29855 8.41249 8.16236 8.33467 8.08454 8.19848C7.98726 8.00393 8.04563 7.77047 8.24018 7.67319L9.95224 6.7588C10.1468 6.66152 10.3803 6.71988 10.4775 6.91444C10.5748 7.10899 10.5164 7.34245 10.3219 7.43973L8.60983 8.35413C8.55147 8.39304 8.4931 8.41249 8.43473 8.41249Z" fill="#C4D4EC"/>
<path d="M15.1858 9.42413H12.6372C12.4231 9.42413 12.248 9.24903 12.248 9.03503V7.90662C12.248 7.69261 12.4231 7.51752 12.6372 7.51752H15.1858C15.3998 7.51752 15.5749 7.69261 15.5749 7.90662V9.03503C15.5749 9.24903 15.3998 9.42413 15.1858 9.42413ZM13.0263 8.64592H14.7967V8.29573H13.0263V8.64592Z" fill="#C4D4EC"/>
<path d="M16.3141 11.9533H15.1857C14.9717 11.9533 14.7966 11.7782 14.7966 11.5642V5.78602C14.7966 5.57201 14.9717 5.39691 15.1857 5.39691H16.3141C16.5281 5.39691 16.7032 5.57201 16.7032 5.78602V11.5642C16.7032 11.7977 16.5281 11.9533 16.3141 11.9533ZM15.5748 11.1751H15.925V6.17512H15.5748V11.1751Z" fill="#C4D4EC"/>
<path d="M6.1002 10.2996C6.00293 10.2996 5.90565 10.2607 5.82783 10.1829C4.89398 9.24905 4.89398 7.71208 5.82783 6.77823C5.98347 6.62259 6.23639 6.62259 6.37258 6.77823C6.52822 6.93387 6.52822 7.18679 6.37258 7.32298C5.73055 7.965 5.73055 8.99613 6.37258 9.63815C6.52822 9.79379 6.52822 10.0467 6.37258 10.1829C6.29476 10.2607 6.19748 10.2996 6.1002 10.2996Z" fill="#C4D4EC"/>
<path d="M4.7579 11.4864C4.66062 11.4864 4.56334 11.4475 4.48552 11.3697C3.70731 10.5914 3.2793 9.56032 3.2793 8.47083C3.2793 7.38133 3.70731 6.3502 4.48552 5.57199C4.64116 5.41635 4.89408 5.41635 5.03027 5.57199C5.18591 5.72763 5.18591 5.98055 5.03027 6.11674C4.4077 6.73931 4.05751 7.57588 4.05751 8.47083C4.05751 9.36577 4.4077 10.2023 5.03027 10.8249C5.18591 10.9806 5.18591 11.2335 5.03027 11.3697C4.9719 11.4475 4.85517 11.4864 4.7579 11.4864Z" fill="#C4D4EC"/>
<path d="M3.66824 12.7704C3.57096 12.7704 3.47368 12.7315 3.39586 12.6537C1.10014 10.358 1.10014 6.60311 3.39586 4.28794C3.5515 4.13229 3.80442 4.13229 3.94061 4.28794C4.09625 4.44358 4.09625 4.6965 3.94061 4.83268C1.93672 6.83657 1.93672 10.0856 3.94061 12.0895C4.09625 12.2451 4.09625 12.4981 3.94061 12.6342C3.88224 12.7315 3.78497 12.7704 3.66824 12.7704Z" fill="#C4D4EC"/>
<path d="M25.4582 10.2996C25.3609 10.2996 25.2636 10.2607 25.1858 10.1829C25.0302 10.0273 25.0302 9.77435 25.1858 9.63817C25.4971 9.32688 25.6722 8.91832 25.6722 8.49031C25.6722 8.06229 25.4971 7.65373 25.1858 7.34245C25.0302 7.18681 25.0302 6.93389 25.1858 6.7977C25.3415 6.64206 25.5944 6.64206 25.7306 6.7977C26.178 7.24517 26.431 7.86774 26.431 8.50976C26.431 9.15179 26.178 9.7549 25.7306 10.2218C25.6527 10.2607 25.5555 10.2996 25.4582 10.2996Z" fill="#C4D4EC"/>
<path d="M26.7812 11.4864C26.6839 11.4864 26.5866 11.4475 26.5088 11.3697C26.3532 11.214 26.3532 10.9611 26.5088 10.8249C27.1314 10.2023 27.4816 9.36577 27.4816 8.47083C27.4816 7.57588 27.1314 6.73931 26.5088 6.11674C26.3532 5.9611 26.3532 5.70818 26.5088 5.57199C26.6645 5.41635 26.9174 5.41635 27.0536 5.57199C27.8318 6.3502 28.2598 7.38133 28.2598 8.47083C28.2598 9.56032 27.8318 10.5914 27.0536 11.3697C26.9757 11.4475 26.8785 11.4864 26.7812 11.4864Z" fill="#C4D4EC"/>
<path d="M27.8705 12.7704C27.7733 12.7704 27.676 12.7315 27.5982 12.6537C27.4425 12.4981 27.4425 12.2451 27.5982 12.109C29.6021 10.1051 29.6021 6.85604 27.5982 4.85215C27.4425 4.69651 27.4425 4.44359 27.5982 4.30741C27.7538 4.15176 28.0067 4.15176 28.1429 4.30741C30.4386 6.60313 30.4386 10.358 28.1429 12.6732C28.0651 12.7315 27.9678 12.7704 27.8705 12.7704Z" fill="#C4D4EC"/>
</g>
<defs>
<clipPath id="clip0_130_1371">
<rect width="30" height="40.5253" fill="white" transform="translate(0.75 0.474731)"/>
</clipPath>
</defs>
</svg>
