<svg width="30" height="31" viewBox="0 0 30 31" fill="none" xmlns="http://www.w3.org/2000/svg">
<path d="M18.9667 20.4503C18.9099 20.4503 18.8388 20.4218 18.7961 20.3934L13.052 15.801L11.4454 16.0285C11.3743 16.0427 11.289 16.0142 11.2321 15.9716L9.90987 14.9195C9.853 14.8768 9.81034 14.8057 9.81034 14.7204L9.66816 13.0285C9.65394 12.9147 9.71082 12.801 9.82456 12.7583C9.92409 12.7014 10.052 12.7157 10.1374 12.7868L11.744 14.0664L12.1421 14.0095L12.5402 13.4977L12.4975 13.0711L10.9193 11.7631C10.834 11.692 10.7914 11.5782 10.834 11.4645C10.8625 11.3507 10.962 11.2796 11.0757 11.2654L12.7393 11.0379C12.8246 11.0237 12.8957 11.0522 12.9525 11.0948L14.2748 12.1469C14.3317 12.1896 14.3743 12.2607 14.3743 12.346L14.5023 13.9668L20.2464 18.5593C20.3743 18.6588 20.3885 18.8294 20.289 18.9574L19.1658 20.3507C19.1231 20.4076 19.052 20.4503 18.981 20.4503H18.9667Z" fill="#C4D4EC"/>
<path d="M14.4313 18.7867C14.3744 18.7867 14.3033 18.7583 14.2606 18.7299L13.2796 17.9479C13.1516 17.8483 13.1374 17.6777 13.2369 17.5498L16.6919 13.2133L16.5355 12.5877C16.5071 12.4739 16.5497 12.346 16.6493 12.2749L18.3412 11.1659C18.4407 11.0948 18.5829 11.109 18.6682 11.1801L19.6493 11.9621C19.7488 12.0332 19.7772 12.1754 19.7346 12.2891L19.0237 14.1801C18.981 14.2938 18.8673 14.3649 18.7535 14.3649L18.1137 14.3507L14.6587 18.673C14.6161 18.7299 14.545 18.7725 14.4739 18.7725C14.4597 18.7867 14.4455 18.7867 14.4313 18.7867Z" fill="#C4D4EC"/>
<path d="M12.4549 21.7583C12.199 21.7583 11.9573 21.673 11.7582 21.5166L11.1042 21.0047C10.6208 20.6208 10.5355 19.9099 10.9336 19.4265L12.7535 17.1658C12.7961 17.109 12.8672 17.0663 12.9383 17.0663C13.0094 17.0521 13.0947 17.0805 13.1516 17.1232L15.1137 18.6872C15.2416 18.7867 15.2559 18.9573 15.1563 19.0853L13.3364 21.3459C13.1516 21.5876 12.8815 21.7298 12.5829 21.7583C12.5402 21.7583 12.4976 21.7583 12.4549 21.7583Z" fill="#C4D4EC"/>
<path d="M15 23.0806C11.09 23.0806 7.91943 19.91 7.91943 16C7.91943 12.0901 11.09 8.91943 15 8.91943C18.91 8.91943 22.0806 12.0901 22.0806 16C22.0806 19.91 18.91 23.0806 15 23.0806ZM15 9.48815C11.4028 9.48815 8.48815 12.4171 8.48815 16C8.48815 19.5829 11.4171 22.5119 15 22.5119C18.5829 22.5119 21.5119 19.5829 21.5119 16C21.5119 12.4171 18.5972 9.48815 15 9.48815Z" fill="#C4D4EC"/>
<path d="M16.8483 31H13.1659C13.0948 31 13.0095 30.9716 12.9668 30.9147L12.5687 30.5166C12.5261 30.4597 12.4834 30.4028 12.4834 30.3318L12.327 27.3175C11.1185 27.0332 9.96682 26.5498 8.90047 25.8957L6.65403 27.9147C6.59716 27.9573 6.54028 27.9858 6.46919 27.9858H5.90047C5.82938 27.9858 5.74408 27.9573 5.70142 27.9005L4.40758 26.6066L4.39337 26.5924L3.09953 25.2986C3.04265 25.2417 3.01422 25.1706 3.01422 25.0995V24.5308C3.01422 24.4597 3.04265 24.3886 3.08531 24.346L5.10427 22.0995C4.45024 21.0332 3.96682 19.8957 3.68246 18.673L0.668246 18.5166C0.597156 18.5166 0.540284 18.4881 0.483412 18.4313L0.0853081 18.0332C0.028436 17.9763 0 17.9052 0 17.8341V14.1517C0 14.0806 0.028436 13.9953 0.0853081 13.9526L0.483412 13.5545C0.526066 13.5118 0.597156 13.4834 0.668246 13.4692L3.68246 13.3128C3.96682 12.1043 4.45024 10.9526 5.10427 9.88625L3.08531 7.63981C3.04265 7.58294 3.01422 7.52606 3.01422 7.45497V6.88625C3.01422 6.81516 3.04265 6.72985 3.09953 6.6872L4.39337 5.39336L4.40758 5.37914L5.70142 4.0853C5.75829 4.02843 5.82938 4 5.90047 4H6.46919C6.54028 4 6.61137 4.02843 6.65403 4.07109L8.90047 6.09004C9.96682 5.43602 11.1043 4.9526 12.327 4.66824L12.4834 1.65403C12.4834 1.58294 12.5118 1.52606 12.5687 1.46919L12.9668 1.07109C13.0095 1.01421 13.0806 0.985779 13.1659 0.985779H16.8483C16.9194 0.985779 17.0047 1.01421 17.0474 1.07109L17.4455 1.46919C17.4882 1.51185 17.5308 1.58294 17.5308 1.65403L17.6872 4.66824C18.8957 4.9526 20.0474 5.43602 21.1137 6.09004L23.3602 4.07109C23.4171 4.02843 23.4739 4 23.545 4H24.1137C24.1991 4 24.2701 4.02843 24.3128 4.0853L26.9147 6.6872C26.9716 6.74407 27 6.81516 27 6.88625V7.45497C27 7.52606 26.9716 7.59715 26.9289 7.63981L24.91 9.88625C25.564 10.9526 26.0474 12.09 26.3318 13.3128L29.346 13.4692C29.4171 13.4692 29.4739 13.4976 29.5308 13.5545L29.9289 13.9526C29.9858 14.0095 30.0142 14.0806 30.0142 14.1517V17.8341C30.0142 17.9052 29.9858 17.9905 29.9289 18.0332L29.5308 18.4313C29.4882 18.4739 29.4171 18.5024 29.346 18.5166L26.3318 18.673C26.0474 19.8815 25.564 21.0332 24.91 22.0995L26.9289 24.346C26.9716 24.4028 27 24.4597 27 24.5308V25.0995C27 25.1706 26.9716 25.2559 26.9147 25.2986L24.3128 27.9005C24.2559 27.9573 24.1848 27.9858 24.1137 27.9858H23.545C23.4739 27.9858 23.4028 27.9573 23.3602 27.9147L21.1137 25.8957C20.0474 26.5498 18.8957 27.0332 17.6872 27.3175L17.5308 30.3318C17.5308 30.4028 17.5024 30.4597 17.4455 30.5166L17.0474 30.9147C16.9905 30.9573 16.9194 31 16.8483 31ZM13.2796 30.4313H16.7204L16.9621 30.1896L17.1327 27.0758C17.1469 26.9479 17.2322 26.8341 17.3602 26.8057C18.654 26.5213 19.8768 26.0237 20.9858 25.2986C21.0995 25.2275 21.2417 25.2417 21.327 25.327L23.6588 27.4171H24L26.4313 24.9858V24.6445L24.327 22.3128C24.2417 22.2133 24.2275 22.0711 24.2986 21.9716C25.0237 20.8626 25.5213 19.6398 25.8057 18.346C25.8341 18.218 25.9337 18.1327 26.0616 18.1185L29.1754 17.9479L29.4171 17.7062V14.2796L29.1754 14.0379L26.0616 13.8673C25.9337 13.8531 25.8199 13.7678 25.8057 13.6398C25.5213 12.346 25.0237 11.1232 24.2986 10.0142C24.2275 9.90047 24.2417 9.75829 24.327 9.67298L26.4171 7.34123V7L23.9858 4.56872H23.6446L21.327 6.67298C21.2275 6.75829 21.0853 6.77251 20.9858 6.70142C19.8768 5.9763 18.654 5.47867 17.3602 5.19431C17.2322 5.16587 17.1469 5.06635 17.1327 4.93839L16.9621 1.82464L16.7204 1.58294H13.2796L13.0379 1.82464L12.8673 4.93839C12.8531 5.06635 12.7678 5.18009 12.6398 5.19431C11.346 5.47867 10.1232 5.9763 9.01422 6.70142C8.90047 6.77251 8.75829 6.75829 8.67299 6.67298L6.35545 4.58294H6.01422L4.80569 5.79147L4.79147 5.80568L3.58294 7.01422V7.35545L5.67299 9.6872C5.75829 9.78673 5.77251 9.92891 5.70142 10.0284C4.99052 11.1374 4.47867 12.3602 4.19431 13.6398C4.16588 13.7678 4.06635 13.8531 3.93839 13.8673L0.810427 14.0379L0.56872 14.2796V17.7204L0.810427 17.9621L3.92417 18.1327C4.05213 18.1469 4.16588 18.2322 4.18009 18.3602C4.46446 19.654 4.96209 20.8768 5.6872 21.9858C5.75829 22.0995 5.74408 22.2417 5.65877 22.327L3.56872 24.6588V25L4.77725 26.2085L4.79147 26.2227L6 27.4313H6.34123L8.67299 25.3412C8.77251 25.2559 8.91469 25.2417 9.01422 25.3128C10.1232 26.0379 11.346 26.5355 12.6398 26.8199C12.7678 26.8483 12.8531 26.9479 12.8673 27.09L13.0379 30.2038L13.2796 30.4313Z" fill="#C4D4EC"/>
</svg>
