<svg width="31" height="36" viewBox="0 0 31 36" fill="none" xmlns="http://www.w3.org/2000/svg">
<path d="M25.8635 26.0229C25.7776 26.0229 25.6918 25.9886 25.6231 25.9199C25.4857 25.7825 25.4857 25.5593 25.6231 25.439C31.2041 19.8581 31.2041 10.7739 25.6231 5.19291C20.0421 -0.388085 10.9579 -0.388085 5.37693 5.19291C2.68088 7.88896 1.18689 11.478 1.18689 15.3074C1.18689 19.1368 2.68088 22.7258 5.37693 25.4219C5.51431 25.5593 5.51431 25.7825 5.37693 25.9027C5.23955 26.0401 5.01631 26.0401 4.89611 25.9027C2.06268 23.0864 0.5 19.3085 0.5 15.3074C0.5 11.3062 2.06268 7.52834 4.89611 4.69492C10.7519 -1.16084 20.2653 -1.16084 26.1211 4.69492C31.9768 10.5507 31.9768 20.0641 26.1211 25.9199C26.0352 25.9886 25.9493 26.0229 25.8635 26.0229Z" fill="#C4D4EC"/>
<path d="M23.0301 23.0864C22.9442 23.0864 22.8584 23.0521 22.7897 22.9834C22.6523 22.846 22.6523 22.6228 22.7897 22.5026C24.7301 20.5621 25.812 17.9691 25.812 15.2043C25.812 12.4396 24.7473 9.86376 22.7897 7.90612C18.7714 3.8878 12.2287 3.8878 8.19322 7.90612C6.25275 9.84658 5.18807 12.4396 5.18807 15.2043C5.18807 17.9691 6.25275 20.5449 8.2104 22.5026C8.34777 22.6399 8.34777 22.8632 8.2104 22.9834C8.07302 23.1208 7.84978 23.1208 7.72957 22.9834C3.4365 18.6903 3.4365 11.7184 7.72957 7.42529C9.80742 5.34744 12.5722 4.1969 15.5086 4.1969C18.4451 4.1969 21.2098 5.34744 23.2877 7.42529C27.5807 11.7184 27.5807 18.6903 23.2877 22.9834C23.219 23.0521 23.1331 23.0864 23.0301 23.0864Z" fill="#C4D4EC"/>
<path d="M10.855 19.5833C10.7691 19.5833 10.6833 19.549 10.6146 19.4803C7.91852 16.7842 7.91852 12.4053 10.6146 9.70923C13.3106 7.01318 17.6896 7.01318 20.3856 9.70923C21.6907 11.0143 22.4119 12.7487 22.4119 14.6033C22.4119 16.4579 21.6907 18.1923 20.3856 19.4974C20.2482 19.6348 20.025 19.6348 19.9048 19.4974C19.7846 19.3601 19.7674 19.1368 19.9048 19.0166C21.0725 17.8489 21.725 16.2862 21.725 14.6205C21.725 12.9548 21.0725 11.3921 19.9048 10.2244C17.4835 7.80311 13.5339 7.80311 11.0954 10.2244C8.6741 12.6457 8.6741 16.5953 11.0954 19.0338C11.2328 19.1712 11.2328 19.3944 11.0954 19.5146C11.0267 19.549 10.9408 19.5833 10.855 19.5833Z" fill="#C4D4EC"/>
<path d="M15.0793 19.652L12.2459 31.9302C11.765 34.008 13.3449 36 15.4914 36C17.6208 36 19.2178 34.008 18.737 31.9302L15.9036 19.652C15.8177 19.2055 15.1823 19.2055 15.0793 19.652Z" fill="#C4D4EC"/>
<path d="M15.5086 16.7327C16.7795 16.7327 17.8097 15.7024 17.8097 14.4316C17.8097 13.1607 16.7795 12.1305 15.5086 12.1305C14.2378 12.1305 13.2075 13.1607 13.2075 14.4316C13.2075 15.7024 14.2378 16.7327 15.5086 16.7327Z" fill="#C4D4EC"/>
</svg>
