<svg width="31" height="36" viewBox="0 0 31 36" fill="none" xmlns="http://www.w3.org/2000/svg">
<g clip-path="url(#clip0_130_1186)">
<path d="M15.2414 36C13.4555 36 11.9958 34.5404 11.9958 32.7545C11.9958 30.9686 13.4555 29.5089 15.2414 29.5089C17.0273 29.5089 18.487 30.9686 18.487 32.7545C18.487 34.5404 17.0445 36 15.2414 36ZM15.2414 30.1958C13.8333 30.1958 12.6827 31.3463 12.6827 32.7545C12.6827 34.1626 13.8333 35.3131 15.2414 35.3131C16.6495 35.3131 17.8001 34.1626 17.8001 32.7545C17.8001 31.3463 16.6495 30.1958 15.2414 30.1958Z" fill="#C4D4EC"/>
<path d="M19.3455 14.0538L12.9746 24.2541L15.6707 14.0538H15.0353H11.2917H10.4331L11.2917 12.68L12.0301 11.4951L18.401 1.31195L15.705 11.4951H16.3404H20.1355H20.9426L20.1355 12.783L19.3455 14.0538Z" fill="#C4D4EC"/>
<path d="M15.2414 27.6371C14.2969 27.6371 13.507 27.0532 13.2322 26.1431L8.18359 9.5375C7.4967 7.27076 7.90884 4.90098 9.31697 2.99485C10.7251 1.1059 12.8888 0.0240479 15.2414 0.0240479C17.594 0.0240479 19.7577 1.1059 21.1659 3.01203C22.574 4.90098 22.9861 7.28793 22.2992 9.55467L17.2506 26.1603C16.9758 27.0532 16.1859 27.6371 15.2414 27.6371ZM15.2414 0.71094C13.112 0.71094 11.1544 1.68976 9.88365 3.42416C8.6129 5.14139 8.23511 7.3051 8.85331 9.3486L13.902 25.9542C14.1252 26.6926 14.7434 26.9502 15.2586 26.9502C15.7737 26.9502 16.392 26.6926 16.6152 25.9542L21.6638 9.3486C22.282 7.3051 21.9043 5.14139 20.6335 3.42416C19.3456 1.70693 17.3879 0.71094 15.2414 0.71094Z" fill="#C4D4EC"/>
<path d="M5.12698 30.2988C5.26436 30.4362 5.26436 30.6423 5.12698 30.7796C5.0583 30.8483 4.97243 30.8827 4.88657 30.8827C4.80071 30.8827 4.71485 30.8483 4.64616 30.7796C-1.20959 24.9239 -1.20959 15.4104 4.62899 9.55467C5.12699 9.05667 5.64215 8.61019 6.1745 8.19806C6.19167 8.45564 6.22601 8.71323 6.27753 8.98799C5.86539 9.31426 5.4876 9.6577 5.10981 10.0355C-0.454012 15.6337 -0.454011 24.7178 5.12698 30.2988Z" fill="#C4D4EC"/>
<path d="M30.25 20.1671C30.25 24.1683 28.6873 27.9462 25.8539 30.7796C25.7165 30.917 25.4932 30.917 25.373 30.7796C25.2357 30.6422 25.2357 30.419 25.373 30.2988C28.0863 27.6027 29.5631 23.9965 29.5631 20.1843C29.5631 16.3721 28.0691 12.7659 25.373 10.0526C24.9952 9.67486 24.6175 9.33141 24.2053 9.00514C24.2568 8.74755 24.2912 8.48997 24.3084 8.21521C24.8407 8.62735 25.3559 9.07382 25.8539 9.55465C28.6873 12.3881 30.25 16.166 30.25 20.1671Z" fill="#C4D4EC"/>
<path d="M7.94332 27.3623C8.0807 27.4997 8.0807 27.7229 7.94332 27.8431C7.87463 27.9118 7.78877 27.9462 7.70291 27.9462C7.61705 27.9462 7.53119 27.9118 7.4625 27.8431C3.23811 23.6188 3.16943 16.767 7.29078 12.4739L7.53119 13.2295C5.86548 15.1185 4.93817 17.5226 4.93817 20.0641C4.93817 22.8117 6.00285 25.4047 7.94332 27.3623Z" fill="#C4D4EC"/>
<path d="M23.0206 27.8431C22.8832 27.9805 22.66 27.9805 22.5398 27.8431C22.4024 27.7058 22.4024 27.4825 22.5398 27.3623C24.4803 25.4047 25.5621 22.8288 25.5621 20.0641C25.5621 17.5226 24.652 15.1185 22.9863 13.2295L23.2267 12.4739C27.3137 16.767 27.245 23.6188 23.0206 27.8431Z" fill="#C4D4EC"/>
</g>
<defs>
<clipPath id="clip0_130_1186">
<rect width="30" height="35.976" fill="white" transform="translate(0.25 0.0240479)"/>
</clipPath>
</defs>
</svg>
