<svg width="31" height="30" viewBox="0 0 31 30" fill="none" xmlns="http://www.w3.org/2000/svg">
<g clip-path="url(#clip0_130_417)">
<path d="M15.8481 5.85979C15.5397 5.85979 15.2874 5.60745 15.2874 5.29904V2.17287C15.2874 1.86446 15.5397 1.61212 15.8481 1.61212C16.1565 1.61212 16.4088 1.86446 16.4088 2.17287V5.29904C16.4088 5.60745 16.1565 5.85979 15.8481 5.85979Z" fill="#C4D4EC"/>
<path d="M6.14724 15.5607H3.02107C2.71266 15.5607 2.46033 15.3084 2.46033 15C2.46033 14.6915 2.71266 14.4392 3.02107 14.4392H6.14724C6.45565 14.4392 6.70799 14.6915 6.70799 15C6.70799 15.3084 6.45565 15.5607 6.14724 15.5607Z" fill="#C4D4EC"/>
<path d="M15.8481 28.3878C15.5397 28.3878 15.2874 28.1355 15.2874 27.8271V24.7009C15.2874 24.3925 15.5397 24.1401 15.8481 24.1401C16.1565 24.1401 16.4088 24.3925 16.4088 24.7009V27.8271C16.4088 28.1355 16.1565 28.3878 15.8481 28.3878Z" fill="#C4D4EC"/>
<path d="M15.8481 7.82245C11.8948 7.82245 8.67053 11.0467 8.67053 15C8.67053 18.9533 11.8948 22.1776 15.8481 22.1776C19.8014 22.1776 23.0257 18.9533 23.0257 15C23.0257 11.0467 19.8014 7.82245 15.8481 7.82245ZM15.8481 21.0561C12.5117 21.0561 9.79203 18.3365 9.79203 15C9.79203 11.6636 12.5117 8.94394 15.8481 8.94394C19.1845 8.94394 21.9042 11.6636 21.9042 15C21.9042 18.3365 19.1845 21.0561 15.8481 21.0561Z" fill="#C4D4EC"/>
<path d="M19.1986 11.8878C18.722 11.4953 18.0211 11.5654 17.6145 12.0421L14.7687 15.5047L14.0538 14.6776C13.6472 14.215 12.9323 14.1589 12.4696 14.5654C12.007 14.972 11.951 15.6869 12.3575 16.1495L13.9416 17.986C13.9556 18 13.9556 18 13.9697 18.014C13.9837 18.028 13.9977 18.0421 13.9977 18.0421C14.0117 18.0561 14.0397 18.0701 14.0538 18.0981L14.0678 18.1121L14.0818 18.1262C14.0958 18.1402 14.1239 18.1542 14.1379 18.1682C14.1519 18.1682 14.1519 18.1822 14.1659 18.1822C14.236 18.2243 14.3061 18.2664 14.3762 18.2944C14.3902 18.2944 14.4042 18.3084 14.4182 18.3084C14.4323 18.3084 14.4463 18.3224 14.4743 18.3224C14.4883 18.3224 14.5164 18.3364 14.5304 18.3364C14.5444 18.3364 14.5584 18.3364 14.5725 18.3505C14.6005 18.3505 14.6145 18.3645 14.6425 18.3645C14.6566 18.3645 14.6706 18.3645 14.6846 18.3645C14.7267 18.3645 14.7547 18.3645 14.7968 18.3645C14.8388 18.3645 14.8668 18.3645 14.9089 18.3645C14.9229 18.3645 14.9369 18.3645 14.9369 18.3645C14.965 18.3645 14.993 18.3505 15.007 18.3505C15.0211 18.3505 15.0351 18.3505 15.0491 18.3364C15.0771 18.3364 15.0911 18.3224 15.1192 18.3224C15.1332 18.3224 15.1472 18.3084 15.1612 18.3084C15.1893 18.2944 15.2173 18.2944 15.2313 18.2804C15.2454 18.2804 15.2454 18.2664 15.2594 18.2664C15.2874 18.2523 15.3295 18.2383 15.3575 18.2103C15.3715 18.1963 15.3855 18.1963 15.3996 18.1822C15.4136 18.1682 15.4416 18.1542 15.4556 18.1402C15.4697 18.1262 15.4837 18.1262 15.4977 18.1121C15.5117 18.0981 15.5117 18.0981 15.5257 18.0841C15.5397 18.0701 15.5397 18.0701 15.5538 18.0561C15.5678 18.0421 15.5818 18.028 15.5958 18.028C15.6098 18.014 15.6379 17.986 15.6519 17.972L15.6659 17.9579L19.3528 13.472C19.7454 12.9953 19.6753 12.2804 19.1986 11.8878Z" fill="#C4D4EC"/>
<path d="M28.6752 15.5607C28.9836 15.5607 29.236 15.3084 29.236 15C29.236 14.6916 28.9836 14.4392 28.6752 14.4392H27.6659C27.3715 8.17289 22.1846 3.16821 15.8481 3.16821C9.32944 3.16821 4.01636 8.4813 4.01636 15C4.01636 21.5187 9.32944 26.8318 15.8481 26.8318C22.1846 26.8318 27.3715 21.8271 27.6659 15.5607H28.6752ZM15.8481 25.7103C9.94626 25.7103 5.13785 20.9019 5.13785 15C5.13785 9.09812 9.94626 4.28971 15.8481 4.28971C21.5678 4.28971 26.25 8.78971 26.5444 14.4392H25.5491C25.2407 14.4392 24.9883 14.6916 24.9883 15C24.9883 15.3084 25.2407 15.5607 25.5491 15.5607H26.5444C26.25 21.2103 21.5537 25.7103 15.8481 25.7103Z" fill="#C4D4EC"/>
<path d="M1.24065 5.6215C1.50701 5.6215 1.73131 5.3972 1.73131 5.13084C1.73131 2.84579 3.59579 0.981308 5.88084 0.981308C6.1472 0.981308 6.3715 0.757009 6.3715 0.490654C6.3715 0.224299 6.1472 0 5.88084 0C3.04907 0 0.75 2.29907 0.75 5.13084C0.75 5.3972 0.974299 5.6215 1.24065 5.6215Z" fill="#C4D4EC"/>
<path d="M5.88084 29.0187C3.59579 29.0187 1.73131 27.1542 1.73131 24.8692C1.73131 24.6028 1.50701 24.3785 1.24065 24.3785C0.974299 24.3785 0.75 24.6028 0.75 24.8692C0.75 27.701 3.04907 30 5.88084 30C6.1472 30 6.3715 29.7757 6.3715 29.5094C6.3715 29.243 6.1472 29.0187 5.88084 29.0187Z" fill="#C4D4EC"/>
<path d="M30.2594 24.3785C29.993 24.3785 29.7687 24.6028 29.7687 24.8692C29.7687 27.1542 27.9042 29.0187 25.6192 29.0187C25.3528 29.0187 25.1285 29.243 25.1285 29.5094C25.1285 29.7757 25.3528 30 25.6192 30C28.451 30 30.75 27.701 30.75 24.8692C30.75 24.6028 30.5257 24.3785 30.2594 24.3785Z" fill="#C4D4EC"/>
<path d="M25.6192 0.981308C27.9042 0.981308 29.7687 2.84579 29.7687 5.13084C29.7687 5.3972 29.993 5.6215 30.2594 5.6215C30.5257 5.6215 30.75 5.3972 30.75 5.13084C30.75 2.29907 28.451 0 25.6192 0C25.3528 0 25.1285 0.224299 25.1285 0.490654C25.1285 0.757009 25.3528 0.981308 25.6192 0.981308Z" fill="#C4D4EC"/>
</g>
<defs>
<clipPath id="clip0_130_417">
<rect width="30" height="30" fill="white" transform="translate(0.75)"/>
</clipPath>
</defs>
</svg>
