<svg width="31" height="39" viewBox="0 0 31 39" fill="none" xmlns="http://www.w3.org/2000/svg">
<path d="M24.3768 25.043C23.7463 25.043 23.1158 24.8182 22.6429 24.3498C21.6773 23.4318 21.6773 21.9518 22.6429 21.0339C26.5837 17.3057 26.5837 11.2171 22.6429 7.48901C18.702 3.7609 12.3177 3.7609 8.37685 7.48901C4.43596 11.2171 4.43596 17.3057 8.37685 21.0339C9.34236 21.9518 9.34236 23.4318 8.37685 24.3498C7.41133 25.2678 5.85468 25.2678 4.88916 24.3498C-0.963054 18.7858 -0.963054 9.73712 4.88916 4.17305C10.7414 -1.39102 20.2586 -1.39102 26.1108 4.17305C31.9631 9.73712 31.9631 18.7858 26.1108 24.3498C25.6379 24.8182 25.0074 25.043 24.3768 25.043Z" fill="#C4D4EC"/>
<path d="M20.9286 20.3782C20.6725 20.3782 20.4163 20.2845 20.239 20.0972C19.8449 19.7412 19.8449 19.1417 20.239 18.7671C22.84 16.2941 22.84 12.2475 20.239 9.77462C18.9779 8.57563 17.303 7.91993 15.5099 7.91993C13.7168 7.91993 12.0419 8.57563 10.7808 9.77462C8.17986 12.2475 8.17986 16.2941 10.7808 18.7671C11.1749 19.123 11.1749 19.7225 10.7808 20.0972C10.3868 20.4719 9.77592 20.4531 9.38183 20.0972C6.01237 16.8936 6.01237 11.6668 9.38183 8.46322C11.0173 6.90828 13.1848 6.04651 15.5099 6.04651C17.8153 6.04651 20.0025 6.90828 21.638 8.46322C25.0074 11.6668 25.0074 16.8936 21.638 20.0972C21.4409 20.2845 21.1848 20.3782 20.9286 20.3782Z" fill="#C4D4EC"/>
<path d="M23.175 39C22.9779 39 22.7809 38.9063 22.6627 38.7377C20.7316 35.7028 19.1553 32.4805 17.9336 29.1833C16.8499 26.2607 16.0617 23.282 15.5691 20.247C15.0962 23.2445 14.3474 26.1858 13.2833 29.0521C12.042 32.4056 10.3671 35.684 8.35724 38.7377C8.1799 39 7.82522 39.0749 7.54936 38.9063C7.2735 38.7377 7.19468 38.4005 7.35231 38.1382C9.32276 35.1408 10.9582 31.9559 12.1799 28.6774C14.0321 23.7129 14.9582 18.5048 14.9385 13.2217C14.9385 12.9032 15.1947 12.6597 15.5297 12.6597C15.8449 12.6597 16.1208 12.9032 16.1208 13.203C16.2193 18.5422 17.2242 23.7878 19.0765 28.8086C20.2784 32.0309 21.8351 35.1782 23.707 38.157C23.8646 38.4192 23.7858 38.7752 23.5099 38.9251C23.3917 38.9625 23.2932 39 23.175 39Z" fill="#C4D4EC"/>
<path d="M15.5098 39C15.1749 39 14.9187 38.7565 14.9187 38.438V13.203C14.9187 12.8845 15.1749 12.6409 15.5098 12.6409C15.8448 12.6409 16.101 12.8845 16.101 13.203V38.438C16.101 38.7377 15.8448 39 15.5098 39Z" fill="#C4D4EC"/>
<path d="M13.165 28.1154C12.9877 28.1154 12.7906 28.0405 12.6921 27.8719C12.495 27.6283 12.5739 27.2724 12.83 27.085L15.1748 25.4926C15.4507 25.3053 15.8054 25.3615 16.0024 25.6238C16.1995 25.8861 16.1207 26.2233 15.8645 26.4106L13.5197 28.0218C13.4014 28.078 13.2832 28.1154 13.165 28.1154Z" fill="#C4D4EC"/>
<path d="M18.032 28.2465C17.9138 28.2465 17.7955 28.2091 17.697 28.1341L15.1749 26.4293C14.899 26.242 14.8399 25.9048 15.0369 25.6425C15.234 25.3989 15.5887 25.324 15.8645 25.5113L18.3867 27.2162C18.6428 27.4035 18.7217 27.7407 18.5246 28.003C18.4064 28.1529 18.2093 28.2465 18.032 28.2465Z" fill="#C4D4EC"/>
<path d="M11.6082 32.1058C11.4112 32.1058 11.2142 32.0121 11.0959 31.8435C10.9186 31.5812 11.0171 31.2253 11.293 31.0754L15.1945 28.8086C15.4703 28.64 15.8447 28.7336 16.0023 28.9959C16.16 29.2582 16.0812 29.6142 15.8053 29.764L11.9038 32.0309C11.825 32.0871 11.7265 32.1058 11.6082 32.1058Z" fill="#C4D4EC"/>
<path d="M19.5493 32.1807C19.4507 32.1807 19.3325 32.162 19.234 32.1058L15.1946 29.764C14.9187 29.5954 14.8202 29.2582 14.9975 28.9959C15.1749 28.7336 15.5296 28.64 15.8054 28.8086L19.8448 31.1504C20.1207 31.319 20.2192 31.6562 20.0419 31.9185C19.9434 32.0871 19.766 32.1807 19.5493 32.1807Z" fill="#C4D4EC"/>
<path d="M7.84485 39C7.6478 39 7.47046 38.9064 7.35223 38.7565C7.17489 38.4942 7.25371 38.157 7.50987 37.9697L15.1946 33.1362C15.4705 32.9676 15.8251 33.0426 16.0222 33.2861C16.1995 33.5484 16.1207 33.8856 15.8645 34.0729L8.17982 38.9064C8.06159 38.9626 7.94337 39 7.84485 39Z" fill="#C4D4EC"/>
<path d="M23.1748 39C23.0566 39 22.9384 38.9625 22.8398 38.9063L15.1748 34.0729C14.8989 33.9043 14.8201 33.5483 15.0172 33.286C15.2142 33.0238 15.5689 32.9488 15.8448 33.1362L23.5098 37.9696C23.7856 38.1382 23.8645 38.4942 23.6674 38.7564C23.5689 38.9063 23.3719 39 23.1748 39Z" fill="#C4D4EC"/>
<path d="M15.5099 39C15.3523 39 15.2144 38.9438 15.0962 38.8314L10.1109 34.2228C9.87448 33.9979 9.87448 33.642 10.1109 33.4359C10.3474 33.2111 10.7218 33.2111 10.9385 33.4172L15.9237 38.0258C16.1602 38.2506 16.1602 38.6066 15.9237 38.8126C15.8252 38.9438 15.6676 39 15.5099 39Z" fill="#C4D4EC"/>
<path d="M15.5098 38.9999C15.3522 38.9999 15.2143 38.9437 15.096 38.8313C14.8596 38.6065 14.8596 38.2506 15.096 38.0445L20.0616 33.2111C20.298 32.9863 20.6724 32.9863 20.8891 33.1923C21.1256 33.4171 21.1256 33.7731 20.8891 33.9792L15.9236 38.8126C15.8251 38.9437 15.6675 38.9999 15.5098 38.9999Z" fill="#C4D4EC"/>
<path d="M13.697 15.3387C13.5394 15.3387 13.4015 15.2825 13.2832 15.1888C11.963 13.9711 11.9433 11.9478 13.2241 10.6926C13.8547 10.0931 14.6822 9.73712 15.5689 9.73712C15.5886 9.73712 15.5886 9.73712 15.6083 9.73712C16.495 9.73712 17.3029 10.0556 17.9335 10.6364C18.564 11.2359 18.9187 12.0227 18.9384 12.8657C18.9581 13.7088 18.6034 14.5144 17.9926 15.1138C17.7561 15.3387 17.3817 15.3387 17.165 15.1326C16.9285 14.9078 16.9285 14.5518 17.165 14.3457C17.5591 13.9523 17.7955 13.4465 17.7758 12.8845C17.7758 12.3412 17.5394 11.8166 17.1256 11.4419C16.7118 11.0673 16.1798 10.8612 15.6281 10.8612H15.6083C15.0369 10.8612 14.4852 11.086 14.0911 11.4794C13.697 11.8728 13.4803 12.3786 13.4803 12.9407C13.4803 13.5027 13.7167 14.0085 14.1305 14.3832C14.367 14.608 14.367 14.964 14.1305 15.1701C14.0123 15.2637 13.8547 15.3387 13.697 15.3387Z" fill="#C4D4EC"/>
</svg>
