<svg width="31" height="39" viewBox="0 0 31 39" fill="none" xmlns="http://www.w3.org/2000/svg">
<path d="M19.7972 24.7416C19.5934 24.7416 19.3896 24.6681 19.2295 24.5064C18.9239 24.1829 18.9239 23.6829 19.2295 23.3595C20.2484 22.3302 20.8015 20.9774 20.8015 19.5217C20.8015 18.0661 20.2484 16.7133 19.2295 15.684C17.1336 13.5814 13.7278 13.5814 11.6319 15.6987C10.6131 16.728 10.06 18.0808 10.06 19.5365C10.06 20.9921 10.6131 22.3449 11.6319 23.3742C11.9376 23.6976 11.9376 24.1976 11.6319 24.5211C11.3263 24.8446 10.8169 24.8446 10.4967 24.5211C9.18672 23.1977 8.45898 21.4185 8.45898 19.5365C8.45898 17.6544 9.18672 15.8899 10.4967 14.5518C13.2184 11.8022 17.6431 11.8022 20.3503 14.5518C21.6602 15.8752 22.3879 17.6544 22.3879 19.5365C22.3879 21.4185 21.6602 23.183 20.3503 24.5211C20.2047 24.6681 20.0009 24.7416 19.7972 24.7416Z" fill="#C4D4EC"/>
<path d="M18.1525 23.286C18.036 23.286 17.9342 23.2419 17.8468 23.1537C17.6722 22.9773 17.6722 22.6979 17.8468 22.5361C18.4727 21.9039 18.822 21.051 18.822 20.1541C18.822 19.2572 18.4727 18.4043 17.8468 17.7721C17.221 17.1398 16.3768 16.7869 15.4889 16.7869C14.6011 16.7869 13.7569 17.1251 13.1311 17.7574C12.5052 18.3896 12.1559 19.2425 12.1559 20.1394C12.1559 21.0363 12.5052 21.8892 13.1311 22.5214C13.3057 22.6979 13.3057 22.9773 13.1311 23.139C12.9564 23.3007 12.6799 23.3154 12.5198 23.139C10.8751 21.4922 10.8751 18.7866 12.5052 17.1398C14.1354 15.493 16.8134 15.4783 18.4581 17.1398C20.1028 18.8014 20.1028 21.4922 18.4581 23.1537C18.3854 23.2419 18.2689 23.286 18.1525 23.286Z" fill="#C4D4EC"/>
<path d="M19.2584 32.9905C19.1856 32.9905 19.1129 32.9464 19.0692 32.8876C18.1231 31.2995 17.3372 29.6233 16.7404 27.9029C16.1582 26.2267 15.7362 24.4916 15.5033 22.7419C15.285 24.4769 14.892 26.1826 14.3098 27.8441C13.6985 29.5939 12.8834 31.2995 11.8937 32.9023C11.8355 33.0052 11.6899 33.0346 11.588 32.9758C11.4862 32.917 11.457 32.7699 11.5153 32.667C12.4904 31.0937 13.291 29.4321 13.8877 27.6971C14.7901 25.0945 15.2559 22.3596 15.2559 19.5953C15.2559 19.4776 15.3577 19.3747 15.4742 19.3747C15.5906 19.3747 15.6925 19.4776 15.6925 19.5953C15.7362 22.389 16.231 25.1386 17.148 27.7706C17.7447 29.4616 18.5016 31.1084 19.4331 32.667C19.4913 32.7699 19.4622 32.9023 19.3603 32.9758C19.3312 32.9758 19.3021 32.9905 19.2584 32.9905Z" fill="#C4D4EC"/>
<path d="M15.4888 32.9906C15.3724 32.9906 15.2705 32.8877 15.2705 32.77V19.5807C15.2705 19.463 15.3724 19.3601 15.4888 19.3601C15.6053 19.3601 15.7072 19.463 15.7072 19.5807V32.77C15.7072 32.8877 15.6053 32.9906 15.4888 32.9906Z" fill="#C4D4EC"/>
<path d="M14.3394 27.3001C14.2666 27.3001 14.2084 27.2707 14.1647 27.2119C14.0919 27.1089 14.121 26.9766 14.2229 26.9031L15.3727 26.0797C15.4746 26.0061 15.6056 26.0355 15.6784 26.1385C15.7512 26.2414 15.7221 26.3737 15.6202 26.4473L14.4703 27.2707C14.4267 27.2854 14.383 27.3001 14.3394 27.3001Z" fill="#C4D4EC"/>
<path d="M16.7263 27.3737C16.6826 27.3737 16.639 27.359 16.5953 27.3296L15.3581 26.4326C15.2563 26.3591 15.2417 26.2268 15.2999 26.1239C15.3727 26.0209 15.5037 26.0062 15.6056 26.065L16.8427 26.962C16.9446 27.0355 16.9592 27.1678 16.9009 27.2708C16.8573 27.3296 16.7991 27.3737 16.7263 27.3737Z" fill="#C4D4EC"/>
<path d="M13.5675 29.3879C13.4947 29.3879 13.422 29.3585 13.3783 29.285C13.3201 29.1821 13.3492 29.0498 13.4511 28.9762L15.3723 27.7852C15.4742 27.7264 15.6052 27.7558 15.678 27.8587C15.7507 27.9617 15.7071 28.094 15.6052 28.1675L13.684 29.3585C13.6548 29.3732 13.6112 29.3879 13.5675 29.3879Z" fill="#C4D4EC"/>
<path d="M17.4827 29.4321C17.439 29.4321 17.4099 29.4174 17.3662 29.4027L15.3722 28.1823C15.2703 28.1235 15.2412 27.9764 15.2994 27.8735C15.3577 27.7706 15.5032 27.7412 15.6051 27.8L17.5991 29.0204C17.701 29.0792 17.7301 29.2263 17.6719 29.3292C17.6282 29.388 17.5554 29.4321 17.4827 29.4321Z" fill="#C4D4EC"/>
<path d="M11.7195 32.9905C11.6467 32.9905 11.5739 32.9611 11.5448 32.8876C11.472 32.7847 11.5012 32.6523 11.603 32.5788L15.3727 30.0498C15.4746 29.9762 15.6056 30.0056 15.6784 30.1086C15.7512 30.2115 15.722 30.3438 15.6202 30.4173L11.8505 32.9464C11.7923 32.9758 11.7486 32.9905 11.7195 32.9905Z" fill="#C4D4EC"/>
<path d="M19.2582 32.9905C19.2145 32.9905 19.1709 32.9758 19.1418 32.9611L15.3721 30.432C15.2702 30.3585 15.2411 30.2261 15.3139 30.1232C15.3866 30.0203 15.5176 29.9909 15.6195 30.0644L19.3892 32.5935C19.4911 32.667 19.5202 32.7993 19.4474 32.9022C19.4038 32.9611 19.331 32.9905 19.2582 32.9905Z" fill="#C4D4EC"/>
<path d="M15.4884 32.9906C15.4302 32.9906 15.372 32.9759 15.3283 32.9318L12.8831 30.5203C12.7958 30.4321 12.7958 30.2998 12.8831 30.2116C12.9705 30.1233 13.1014 30.1233 13.1888 30.2116L15.634 32.623C15.7213 32.7112 15.7213 32.8435 15.634 32.9318C15.6049 32.9612 15.5467 32.9906 15.4884 32.9906Z" fill="#C4D4EC"/>
<path d="M15.489 32.9904C15.4308 32.9904 15.3726 32.9757 15.3289 32.9316C15.2416 32.8434 15.2416 32.711 15.3289 32.6228L17.7741 30.0938C17.8615 30.0055 17.9925 30.0055 18.0798 30.0938C18.1671 30.182 18.1671 30.3143 18.0798 30.4025L15.6346 32.9316C15.6055 32.961 15.5472 32.9904 15.489 32.9904Z" fill="#C4D4EC"/>
<path d="M14.601 20.6245C14.5427 20.6245 14.4845 20.6098 14.4409 20.5657C14.1352 20.2716 13.9751 19.8746 13.9751 19.4482C13.9751 19.0218 14.1352 18.6248 14.4263 18.316C14.7174 18.0072 15.1104 17.8455 15.5325 17.8455C15.9546 17.8455 16.3475 18.0072 16.6532 18.3013C16.9588 18.5954 17.1189 18.9924 17.1189 19.4188C17.1189 19.8452 16.9588 20.2422 16.6677 20.551C16.5804 20.6392 16.4494 20.6392 16.3621 20.551C16.2748 20.4627 16.2748 20.3304 16.3621 20.2422C16.5659 20.0216 16.6823 19.7423 16.6823 19.4335C16.6823 19.1247 16.5513 18.8453 16.333 18.6248C16.1147 18.4042 15.8381 18.3013 15.5325 18.3013C15.2268 18.3013 14.9503 18.4336 14.7319 18.6395C14.5136 18.8453 14.4117 19.1394 14.4117 19.4482C14.4117 19.757 14.5427 20.0363 14.7611 20.2569C14.8484 20.3451 14.8484 20.4775 14.7611 20.5657C14.7174 20.5951 14.6592 20.6245 14.601 20.6245Z" fill="#C4D4EC"/>
<path d="M9.88527 16.1693C9.76883 16.1693 9.66695 16.1252 9.57962 16.037C9.40496 15.8605 9.40496 15.5811 9.57962 15.4194C10.875 14.1107 10.875 11.964 9.57962 10.6553C8.28424 9.34669 6.15924 9.34669 4.86386 10.6553C3.56849 11.964 3.56849 14.1107 4.86386 15.4194C5.03852 15.5958 5.03852 15.8752 4.86386 16.037C4.68921 16.1987 4.41267 16.2134 4.25256 16.037C2.60787 14.3754 2.60787 11.6846 4.25256 10.0231C5.89725 8.36153 8.56078 8.36153 10.2055 10.0231C11.8502 11.6846 11.8502 14.3754 10.2055 16.037C10.1036 16.1252 10.0017 16.1693 9.88527 16.1693Z" fill="#C4D4EC"/>
<path d="M10.9916 25.8885C10.9188 25.8885 10.846 25.8444 10.8024 25.7856C9.8563 24.1975 9.07034 22.5213 8.4736 20.8157C7.8914 19.1394 7.46931 17.4044 7.23644 15.6546C7.01812 17.3897 6.62514 19.0953 6.04294 20.7568C5.43164 22.5066 4.61657 24.2122 3.62685 25.8003C3.56863 25.9032 3.42308 25.9326 3.3212 25.8738C3.21931 25.815 3.1902 25.6679 3.24842 25.565C4.22359 23.9917 5.02411 22.3302 5.62086 20.5951C6.52325 17.9925 6.98901 15.2576 6.98901 12.4933C6.98901 12.3756 7.09089 12.2727 7.20733 12.2727C7.32377 12.2727 7.42565 12.3756 7.42565 12.4933C7.46931 15.287 7.96418 18.0366 8.88113 20.6686C9.47788 22.3596 10.2347 24.0064 11.1662 25.565C11.2245 25.6679 11.1953 25.8003 11.0935 25.8738C11.0644 25.8738 11.0352 25.8885 10.9916 25.8885Z" fill="#C4D4EC"/>
<path d="M7.2215 25.8886C7.10506 25.8886 7.00317 25.7857 7.00317 25.668V12.4787C7.00317 12.361 7.10506 12.2581 7.2215 12.2581C7.33793 12.2581 7.43982 12.361 7.43982 12.4787V25.668C7.43982 25.7857 7.33793 25.8886 7.2215 25.8886Z" fill="#C4D4EC"/>
<path d="M6.07226 20.1982C5.99949 20.1982 5.94127 20.1688 5.8976 20.11C5.82483 20.007 5.85394 19.8747 5.95582 19.8012L7.10565 18.9631C7.20753 18.8895 7.33853 18.9189 7.4113 19.0072C7.48408 19.1101 7.45497 19.2424 7.35308 19.3159L6.20325 20.1541C6.15959 20.1835 6.11593 20.1982 6.07226 20.1982Z" fill="#C4D4EC"/>
<path d="M8.45896 20.2569C8.41529 20.2569 8.37163 20.2422 8.32796 20.2128L7.09081 19.3305C6.98892 19.257 6.97437 19.1247 7.03259 19.0218C7.10536 18.9188 7.23635 18.9041 7.33824 18.9777L8.5754 19.8746C8.67728 19.9481 8.69183 20.0804 8.63361 20.1834C8.58995 20.2275 8.53173 20.2569 8.45896 20.2569Z" fill="#C4D4EC"/>
<path d="M5.30043 22.2861C5.22765 22.2861 5.15488 22.2567 5.11122 22.1832C5.053 22.0803 5.08211 21.948 5.18399 21.8744L7.10522 20.6834C7.20711 20.6246 7.3381 20.654 7.41087 20.7569C7.48365 20.8599 7.43998 20.9922 7.3381 21.0657L5.41687 22.2567C5.3732 22.2714 5.34409 22.2861 5.30043 22.2861Z" fill="#C4D4EC"/>
<path d="M9.21533 22.3301C9.17167 22.3301 9.14256 22.3154 9.0989 22.3007L7.10489 21.0803C7.003 21.0215 6.97389 20.8892 7.03211 20.7715C7.09033 20.6686 7.23588 20.6392 7.33777 20.698L9.33177 21.9184C9.43366 21.9772 9.46277 22.1096 9.40455 22.2272C9.36088 22.286 9.28811 22.3301 9.21533 22.3301Z" fill="#C4D4EC"/>
<path d="M3.43749 25.8886C3.36472 25.8886 3.29195 25.8592 3.26284 25.7857C3.19006 25.6827 3.21917 25.5504 3.32106 25.4769L7.09075 22.9478C7.19263 22.8743 7.32363 22.9037 7.3964 23.0066C7.46917 23.1096 7.44006 23.2419 7.33818 23.3154L3.56849 25.8445C3.52482 25.8739 3.48116 25.8886 3.43749 25.8886Z" fill="#C4D4EC"/>
<path d="M10.9911 25.8887C10.9475 25.8887 10.9038 25.874 10.8747 25.8593L7.10499 23.3302C7.00311 23.2567 6.974 23.1243 7.04677 23.0214C7.11955 22.9185 7.25054 22.8891 7.35242 22.9626L11.1221 25.4917C11.224 25.5652 11.2531 25.6975 11.1803 25.8004C11.1367 25.8446 11.0639 25.8887 10.9911 25.8887Z" fill="#C4D4EC"/>
<path d="M7.22134 25.8885C7.16312 25.8885 7.1049 25.8738 7.06124 25.8297L4.61603 23.4035C4.5287 23.3153 4.5287 23.183 4.61603 23.0947C4.70336 23.0065 4.83436 23.0065 4.92168 23.0947L7.36689 25.5062C7.45422 25.5944 7.45422 25.7267 7.36689 25.8149C7.33778 25.8591 7.27956 25.8885 7.22134 25.8885Z" fill="#C4D4EC"/>
<path d="M7.22194 25.8886C7.16372 25.8886 7.1055 25.8739 7.06183 25.8298C6.97451 25.7416 6.97451 25.6092 7.06183 25.521L9.50704 22.9919C9.59437 22.9037 9.72536 22.9037 9.81269 22.9919C9.90002 23.0802 9.90002 23.2125 9.81269 23.3007L7.36749 25.8298C7.33838 25.8592 7.28016 25.8886 7.22194 25.8886Z" fill="#C4D4EC"/>
<path d="M6.33362 13.5225C6.2754 13.5225 6.21718 13.5078 6.17352 13.4637C5.86787 13.1696 5.70776 12.7726 5.70776 12.3462C5.70776 11.9198 5.86787 11.5228 6.15896 11.214C6.45006 10.9052 6.84304 10.7435 7.26513 10.7435C7.27968 10.7435 7.27968 10.7435 7.27968 10.7435C7.68722 10.7435 8.0802 10.9052 8.37129 11.1993C8.67694 11.4934 8.83705 11.8904 8.83705 12.3168C8.83705 12.7432 8.6915 13.1255 8.4004 13.4196C8.31307 13.5078 8.18208 13.5078 8.09475 13.4196C8.00742 13.3314 8.00742 13.199 8.09475 13.1108C8.29852 12.8902 8.41496 12.6109 8.41496 12.3021C8.41496 11.9933 8.28396 11.7139 8.06564 11.4934C7.84732 11.2728 7.57078 11.1552 7.26513 11.1699C6.95948 11.1699 6.68294 11.3022 6.46461 11.5081C6.24629 11.7139 6.14441 12.008 6.14441 12.3168C6.14441 12.6256 6.2754 12.9049 6.49372 13.1255C6.58105 13.2137 6.58105 13.3461 6.49372 13.4343C6.4355 13.4931 6.39184 13.5225 6.33362 13.5225Z" fill="#C4D4EC"/>
<path d="M20.9037 16.1693C20.7872 16.1693 20.6853 16.1252 20.598 16.037C18.9533 14.3754 18.9533 11.6846 20.598 10.0231C22.2427 8.36153 24.9062 8.36153 26.5509 10.0231C28.1956 11.6846 28.1956 14.3754 26.5509 16.037C26.3763 16.2134 26.0997 16.2134 25.9396 16.037C25.765 15.8605 25.765 15.5811 25.9396 15.4194C27.235 14.1107 27.235 11.964 25.9396 10.6553C24.6443 9.34669 22.5193 9.34669 21.2239 10.6553C19.9285 11.964 19.9285 14.1107 21.2239 15.4194C21.3985 15.5958 21.3985 15.8752 21.2239 16.037C21.122 16.1252 21.0201 16.1693 20.9037 16.1693Z" fill="#C4D4EC"/>
<path d="M27.3361 25.8885C27.2633 25.8885 27.1905 25.8444 27.1468 25.7856C26.2008 24.1975 25.4148 22.5213 24.8181 20.8157C24.2359 19.1394 23.8138 17.4044 23.5809 15.6546C23.3626 17.3897 22.9696 19.0953 22.3874 20.7568C21.7761 22.5066 20.9611 24.2122 19.9713 25.8003C19.9131 25.9032 19.7676 25.9326 19.6657 25.8738C19.5638 25.815 19.5347 25.6679 19.5929 25.565C20.5681 23.9917 21.3686 22.3302 21.9653 20.5951C22.8677 17.9925 23.3335 15.2576 23.3335 12.4933C23.3335 12.3756 23.4354 12.2727 23.5518 12.2727C23.6683 12.2727 23.7701 12.3756 23.7701 12.4933C23.8138 15.287 24.3087 18.0366 25.2256 20.6686C25.8078 22.3596 26.5792 24.0064 27.5107 25.565C27.5689 25.6679 27.5398 25.8003 27.4379 25.8738C27.4234 25.8738 27.3797 25.8885 27.3361 25.8885Z" fill="#C4D4EC"/>
<path d="M23.567 25.8886C23.4505 25.8886 23.3486 25.7857 23.3486 25.668V12.4787C23.3486 12.361 23.4505 12.2581 23.567 12.2581C23.6834 12.2581 23.7853 12.361 23.7853 12.4787V25.668C23.7853 25.7857 23.6979 25.8886 23.567 25.8886Z" fill="#C4D4EC"/>
<path d="M22.4167 20.1982C22.344 20.1982 22.2858 20.1688 22.2421 20.11C22.1693 20.007 22.1984 19.8747 22.3003 19.8012L23.4501 18.9631C23.552 18.8895 23.683 18.9189 23.7558 19.0072C23.8286 19.1101 23.7994 19.2424 23.6976 19.3159L22.5477 20.1541C22.5041 20.1835 22.4604 20.1982 22.4167 20.1982Z" fill="#C4D4EC"/>
<path d="M24.8037 20.2571C24.76 20.2571 24.7164 20.2424 24.6727 20.213L23.4355 19.316C23.3337 19.2425 23.3191 19.1102 23.3773 19.0072C23.4501 18.9043 23.5811 18.8896 23.683 18.9631L24.9201 19.8601C25.022 19.9336 25.0366 20.0659 24.9783 20.1688C24.9492 20.2277 24.8765 20.2571 24.8037 20.2571Z" fill="#C4D4EC"/>
<path d="M21.6598 22.2861C21.587 22.2861 21.5143 22.2567 21.4706 22.1832C21.4124 22.0803 21.4415 21.948 21.5434 21.8744L23.4646 20.6834C23.5665 20.6246 23.6975 20.654 23.7702 20.7569C23.843 20.8599 23.7994 20.9922 23.6975 21.0657L21.7762 22.2567C21.7326 22.2714 21.6889 22.2861 21.6598 22.2861Z" fill="#C4D4EC"/>
<path d="M25.5608 22.3301C25.5171 22.3301 25.488 22.3154 25.4444 22.3007L23.4503 21.0803C23.3485 21.0215 23.3194 20.8892 23.3776 20.7715C23.4358 20.6686 23.5813 20.6392 23.6832 20.698L25.6772 21.9184C25.7791 21.9772 25.8082 22.1096 25.75 22.2272C25.7063 22.286 25.6336 22.3301 25.5608 22.3301Z" fill="#C4D4EC"/>
<path d="M19.7971 25.8886C19.7243 25.8886 19.6516 25.8592 19.6225 25.7857C19.5497 25.6827 19.5788 25.5504 19.6807 25.4769L23.4504 22.9478C23.5523 22.8743 23.6832 22.9037 23.756 23.0066C23.8288 23.1096 23.7997 23.2419 23.6978 23.3154L19.9136 25.8445C19.8844 25.8739 19.8408 25.8886 19.7971 25.8886Z" fill="#C4D4EC"/>
<path d="M27.3366 25.8887C27.2929 25.8887 27.2493 25.874 27.2201 25.8593L23.4505 23.3302C23.3486 23.2567 23.3195 23.1243 23.3922 23.0214C23.465 22.9185 23.596 22.8891 23.6979 22.9626L27.4676 25.4917C27.5695 25.5652 27.5986 25.6975 27.5258 25.8004C27.4821 25.8446 27.4094 25.8887 27.3366 25.8887Z" fill="#C4D4EC"/>
<path d="M23.5671 25.8885C23.5089 25.8885 23.4507 25.8738 23.4216 25.8297L20.9764 23.4183C20.8891 23.3301 20.8891 23.1977 20.9764 23.1095C21.0637 23.0213 21.1947 23.0213 21.282 23.1095L23.7272 25.5209C23.8146 25.6092 23.8146 25.7415 23.7272 25.8297C23.6836 25.8591 23.6254 25.8885 23.5671 25.8885Z" fill="#C4D4EC"/>
<path d="M23.5668 25.8886C23.5085 25.8886 23.4503 25.8739 23.4212 25.8298C23.3339 25.7416 23.3339 25.6092 23.4212 25.521L25.8664 22.9919C25.9537 22.9037 26.0847 22.9037 26.1721 22.9919C26.2594 23.0802 26.2594 23.2125 26.1721 23.3007L23.7269 25.8298C23.6832 25.8592 23.625 25.8886 23.5668 25.8886Z" fill="#C4D4EC"/>
<path d="M22.6792 13.5225C22.621 13.5225 22.5627 13.5078 22.5336 13.4637C22.228 13.1696 22.0679 12.7726 22.0679 12.3462C22.0679 11.9198 22.2134 11.5228 22.5191 11.214C22.8247 10.9052 23.2031 10.7435 23.6252 10.7435H23.6398C24.0473 10.7435 24.4403 10.9052 24.7314 11.1993C25.0371 11.4934 25.1972 11.8904 25.1972 12.3168C25.1972 12.7432 25.0516 13.1402 24.746 13.449C24.6586 13.5372 24.5276 13.5372 24.4403 13.449C24.353 13.3608 24.353 13.2284 24.4403 13.1402C24.6586 12.9196 24.7605 12.6403 24.7605 12.3315C24.7605 12.0227 24.6295 11.7433 24.4112 11.5228C24.1929 11.3169 23.9018 11.1846 23.6107 11.1993C23.305 11.1993 23.0285 11.3316 22.8102 11.5375C22.5918 11.7433 22.49 12.0374 22.49 12.3462C22.49 12.655 22.621 12.9343 22.8393 13.1549C22.9266 13.2431 22.9266 13.3755 22.8393 13.4637C22.7956 13.4931 22.7374 13.5225 22.6792 13.5225Z" fill="#C4D4EC"/>
<path d="M7.22175 7.61163C8.64812 7.61163 10.0017 8.17037 11.0206 9.19964C12.2432 10.4348 12.7526 12.1404 12.5343 13.7578C13.0582 13.5079 13.6113 13.3314 14.1789 13.2285C14.2372 11.3611 13.5531 9.47902 12.1413 8.05274C10.8313 6.7294 9.07021 5.9942 7.20719 5.9942C5.35873 5.9942 3.61216 6.7294 2.28767 8.05274C0.97774 9.37609 0.25 11.1553 0.25 13.0374C0.25 14.9194 0.97774 16.6839 2.28767 18.022C2.44777 18.1837 2.65154 18.2572 2.85531 18.2572C3.05908 18.2572 3.26284 18.1837 3.42295 18.022C3.7286 17.6985 3.7286 17.1985 3.42295 16.8751C2.40411 15.8458 1.85103 14.4783 1.85103 13.0374C1.85103 11.5964 2.40411 10.2289 3.42295 9.19964C4.44178 8.17037 5.78082 7.61163 7.22175 7.61163Z" fill="#C4D4EC"/>
<path d="M28.5013 8.05274C27.1914 6.7294 25.4302 5.9942 23.5672 5.9942C21.7042 5.9942 19.9576 6.7294 18.6331 8.05274C17.3232 9.37609 16.5955 11.1553 16.5955 13.0374C16.5955 13.0962 16.5955 13.1403 16.5955 13.1991C17.1485 13.2873 17.7016 13.4491 18.2256 13.6843C18.1965 13.4785 18.1819 13.2579 18.1819 13.0521C18.1819 11.6111 18.735 10.2436 19.7539 9.21435C20.7727 8.18508 22.1117 7.62633 23.5527 7.62633C24.9936 7.62633 26.3326 8.18508 27.3515 9.21435C28.3703 10.2436 28.9234 11.5964 28.9234 13.0521C28.9234 14.5077 28.3848 15.8458 27.366 16.8751C27.0604 17.1985 27.0604 17.6985 27.366 18.022C27.5261 18.1837 27.7299 18.2572 27.9336 18.2572C28.1374 18.2572 28.3412 18.1837 28.5013 18.022C29.8112 16.6986 30.539 14.9194 30.539 13.0374C30.539 11.1553 29.8112 9.3908 28.5013 8.05274Z" fill="#C4D4EC"/>
</svg>
