<svg width="12" height="13" viewBox="0 0 12 13" fill="none" xmlns="http://www.w3.org/2000/svg">
<g clip-path="url(#clip0_68_4892)">
<path d="M9.78378 2.20853C9.07027 0.900161 7.64324 0 6 0C4.35676 0 2.92973 0.900161 2.21622 2.20853H0C0 2.20853 0 4.05072 0 6.13366C0 9.05395 3.43784 11.3357 5.09189 12.3301C5.6 12.6337 6 12.9895 6 12.9895C6 12.9895 6.4 12.6337 6.90811 12.3301C8.56216 11.3253 12 9.05395 12 6.13366C12 4.05072 12 2.20853 12 2.20853H9.78378ZM0.972973 6.13366V3.1401H8.99459C8.64865 3.43317 8.43243 3.87279 8.43243 4.35427C8.43243 4.39614 8.43243 4.438 8.44324 4.4694C8.31351 4.72061 8.02162 5.00322 7.74054 5.2649C7.48108 5.50564 6.85405 6.20692 6.85405 6.20692C6.85405 6.20692 6.76757 6.18599 6.65946 6.15459C6.65946 6.15459 6.64865 6.15459 6.63784 6.14412C6.60541 6.13366 6.48649 6.08132 6.42162 6.06039C6.31351 6.03945 6.02162 6.01852 5.94595 6.01852C5.70811 6.00805 5.6973 5.91385 5.23243 5.93478C4.8 5.94525 4.60541 6.69887 4.52973 6.85588C4.33514 7.26409 4 8.09098 3.87027 8.24799C3.80541 8.33172 3.25405 8.89694 2.74595 9.42029C1.34054 8.07005 0.972973 6.93961 0.972973 6.13366ZM6.41081 11.5451C6.27027 11.6288 6.12973 11.723 6.01081 11.8068C5.89189 11.723 5.75135 11.6288 5.61081 11.5451C5.22162 11.3148 4.87568 11.0845 4.55135 10.8647C4.90811 10.5089 5.5027 9.93317 5.65405 9.8285C5.88108 9.68196 6.10811 9.6715 6.27027 9.58776C6.51892 9.46216 7.43784 9.02254 7.51351 8.97021C8.12973 8.47826 8.52973 8.33172 8.67027 8.25845C9.21081 8.00725 9.6973 8.33172 9.75135 8.19565C9.85946 7.96538 9.55676 7.50483 8.96216 7.4525C8.47568 7.41063 7.48108 7.97585 7.22162 7.83978C7.00541 7.72464 7.31892 7.29549 7.47027 7.06522C7.80541 6.55234 8.20541 6.04992 8.41081 5.76731C8.50811 5.63124 8.62703 5.46377 8.73514 5.28583C9.03784 5.71498 9.54595 5.98712 10.1189 5.98712C10.4649 5.98712 10.7784 5.89291 11.0486 5.71498V6.13366C11.0486 7.32689 10.2486 9.23188 6.41081 11.5451Z" fill="#FAD754"/>
</g>
<defs>
<clipPath id="clip0_68_4892">
<rect width="12" height="13" fill="white"/>
</clipPath>
</defs>
</svg>
