<svg id="Layer_1" data-name="Layer 1" xmlns="http://www.w3.org/2000/svg" viewBox="0 0 95.6279 86.5786"><defs><style>.cls-1{fill:none;}.cls-2{fill:#586d7f;}</style></defs><path class="cls-1" d="M87.954,7.9644H8.6451A5.211,5.211,0,0,0,3.44,13.17V64.7027A5.2129,5.2129,0,0,0,8.646,69.91H35.8941a4.1042,4.1042,0,0,1,3.4931,1.9287L48.3,86.0358l8.9128-14.1951A4.0963,4.0963,0,0,1,60.7049,69.91H87.954A5.2129,5.2129,0,0,0,93.16,64.7027V13.17A5.2112,5.2112,0,0,0,87.954,7.9644ZM27.7861,56.1038a1.9028,1.9028,0,0,1-2.4574,0c-12.6654-11.1939-12.6654-29.4064,0-40.6a1.9024,1.9024,0,0,1,2.4574,0,1.4124,1.4124,0,0,1,0,2.1717c-11.31,9.9962-11.31,26.2607,0,36.2566A1.4127,1.4127,0,0,1,27.7861,56.1038Zm4.7328-4.1827a1.9026,1.9026,0,0,1-2.4575,0c-10.0562-8.8871-10.0562-23.3488,0-32.2359a1.9026,1.9026,0,0,1,2.4575,0,1.4124,1.4124,0,0,1,0,2.1717c-8.7007,7.69-8.7007,20.2022,0,27.8925A1.4124,1.4124,0,0,1,32.5189,51.9211Zm5.3132-6.8675a1.4127,1.4127,0,0,1,0,2.172,1.9028,1.9028,0,0,1-2.4574,0,14.862,14.862,0,0,1,0-22.8451,1.9027,1.9027,0,0,1,2.4574,0,1.4127,1.4127,0,0,1,0,2.172A12.0488,12.0488,0,0,0,37.8321,45.0536ZM48.3,64.6743a5.171,5.171,0,1,1,5.1711-5.1708A5.1708,5.1708,0,0,1,48.3,64.6743Zm7.2379-42.5379L51.3447,46.6552A3.0454,3.0454,0,0,1,48.3,49.224h0a3.045,3.045,0,0,1-3.0442-2.57L41.0622,22.1364a7.3428,7.3428,0,1,1,14.4752,0Zm5.6872,25.0892a1.9029,1.9029,0,0,1-2.4575,0,1.4129,1.4129,0,0,1,0-2.172,12.049,12.049,0,0,0,0-18.5011,1.4129,1.4129,0,0,1,0-2.172,1.9028,1.9028,0,0,1,2.4575,0,14.862,14.862,0,0,1,0,22.8451Zm4.0839,5.1455a1.855,1.855,0,0,1-1.2287-.45,1.4124,1.4124,0,0,1,0-2.1717c8.7007-7.69,8.7007-20.2022,0-27.8925a1.4124,1.4124,0,0,1,0-2.1717,1.9024,1.9024,0,0,1,2.4574,0c10.0563,8.8871,10.0563,23.3488,0,32.2359A1.855,1.855,0,0,1,65.3085,52.3711ZM71.27,56.1038a1.9029,1.9029,0,0,1-2.4575,0,1.4129,1.4129,0,0,1,0-2.172,24.07,24.07,0,0,0,8.4965-18.128,24.0709,24.0709,0,0,0-8.4965-18.1286,1.4125,1.4125,0,0,1,0-2.1717,1.9026,1.9026,0,0,1,2.4575,0C83.9358,26.6974,83.9358,44.91,71.27,56.1038Z" transform="translate(-0.486 -5.0107)"/><path class="cls-2" d="M48.3,13.5563a7.3428,7.3428,0,0,0-7.2378,8.58L45.2553,46.654A3.045,3.045,0,0,0,48.3,49.224h0a3.0454,3.0454,0,0,0,3.0447-2.5688l4.1927-24.5188a7.3414,7.3414,0,0,0-7.2374-8.58Z" transform="translate(-0.486 -5.0107)"/><path class="cls-2" d="M66.5372,19.6852a1.9024,1.9024,0,0,0-2.4574,0,1.4124,1.4124,0,0,0,0,2.1717c8.7007,7.69,8.7007,20.2022,0,27.8925a1.4124,1.4124,0,0,0,0,2.1717,1.9024,1.9024,0,0,0,2.4574,0C76.5935,43.034,76.5935,28.5723,66.5372,19.6852Z" transform="translate(-0.486 -5.0107)"/><path class="cls-2" d="M32.5189,21.8569a1.4124,1.4124,0,0,0,0-2.1717,1.9026,1.9026,0,0,0-2.4575,0c-10.0562,8.8871-10.0562,23.3488,0,32.2359a1.9026,1.9026,0,0,0,2.4575,0,1.4124,1.4124,0,0,0,0-2.1717C23.8182,42.0591,23.8182,29.5472,32.5189,21.8569Z" transform="translate(-0.486 -5.0107)"/><path class="cls-2" d="M71.27,15.5035a1.9026,1.9026,0,0,0-2.4575,0,1.4125,1.4125,0,0,0,0,2.1717A24.0709,24.0709,0,0,1,77.309,35.8038a24.07,24.07,0,0,1-8.4965,18.128,1.4129,1.4129,0,0,0,0,2.172,1.9029,1.9029,0,0,0,2.4575,0C83.9358,44.91,83.9358,26.6974,71.27,15.5035Z" transform="translate(-0.486 -5.0107)"/><path class="cls-2" d="M27.7861,17.6752a1.4124,1.4124,0,0,0,0-2.1717,1.9024,1.9024,0,0,0-2.4574,0c-12.6654,11.1939-12.6654,29.4064,0,40.6a1.9028,1.9028,0,0,0,2.4574,0,1.4127,1.4127,0,0,0,0-2.172C16.4757,43.9359,16.4757,27.6714,27.7861,17.6752Z" transform="translate(-0.486 -5.0107)"/><path class="cls-2" d="M37.8321,26.5525a1.4127,1.4127,0,0,0,0-2.172,1.9027,1.9027,0,0,0-2.4574,0,14.862,14.862,0,0,0,0,22.8451,1.9028,1.9028,0,0,0,2.4574,0,1.4127,1.4127,0,0,0,0-2.172A12.0488,12.0488,0,0,1,37.8321,26.5525Z" transform="translate(-0.486 -5.0107)"/><path class="cls-2" d="M61.2246,24.3805a1.9028,1.9028,0,0,0-2.4575,0,1.4129,1.4129,0,0,0,0,2.172,12.049,12.049,0,0,1,0,18.5011,1.4129,1.4129,0,0,0,0,2.172,1.9029,1.9029,0,0,0,2.4575,0,14.862,14.862,0,0,0,0-22.8451Z" transform="translate(-0.486 -5.0107)"/><path class="cls-2" d="M87.954,5.0107H8.6451A8.168,8.168,0,0,0,.486,13.17V64.7027a8.17,8.17,0,0,0,8.16,8.161H35.8941a1.1635,1.1635,0,0,1,.9913.5461L48.3,91.5893,59.7146,73.41a1.1607,1.1607,0,0,1,.99-.5461H87.954a8.17,8.17,0,0,0,8.16-8.161V13.17A8.1682,8.1682,0,0,0,87.954,5.0107ZM93.16,64.7027A5.2129,5.2129,0,0,1,87.954,69.91H60.7049a4.0963,4.0963,0,0,0-3.4921,1.9307L48.3,86.0358,39.3872,71.8387A4.1042,4.1042,0,0,0,35.8941,69.91H8.646A5.2129,5.2129,0,0,1,3.44,64.7027V13.17A5.211,5.211,0,0,1,8.6451,7.9644H87.954A5.2112,5.2112,0,0,1,93.16,13.17Z" transform="translate(-0.486 -5.0107)"/><path class="cls-2" d="M48.3,54.3323a5.171,5.171,0,1,0,5.1711,5.1712A5.1711,5.1711,0,0,0,48.3,54.3323Z" transform="translate(-0.486 -5.0107)"/></svg>