<svg id="Layer_1" data-name="Layer 1" xmlns="http://www.w3.org/2000/svg" viewBox="0 0 94.6479 95.5147"><defs><style>.cls-1{fill:none;}.cls-2{fill:#586d7f;}</style></defs><path class="cls-1" d="M73.6051,10.1826,53.1467,1.6788V95.1464h6.96V55.95l11.0142-8.666,2.4845.8788ZM54.03,11.6543a.27.27,0,0,1,.3742-.25L59.565,13.546a.27.27,0,0,1,.1668.2493v5.1134a.27.27,0,0,1-.3743.2493l-5.161-2.141a.2706.2706,0,0,1-.1669-.25Zm0,22.3211a.27.27,0,0,1,.3742-.2493l5.1612,2.141a.27.27,0,0,1,.1668.25V41.23a.2705.2705,0,0,1-.3743.25l-5.161-2.1415a.27.27,0,0,1-.1669-.25Zm0,13.9a.27.27,0,0,1,.3742-.25l5.1612,2.1415a.27.27,0,0,1,.1668.2493V55.129a.2705.2705,0,0,1-.3743.25l-5.161-2.141a.2706.2706,0,0,1-.1669-.25ZM59.81,61.7511a.4552.4552,0,0,1-.63.4209l-4.8354-2.0074a.4554.4554,0,0,1-.2809-.4209V54.9086a.4554.4554,0,0,1,.63-.4209l4.8352,2.0073a.4552.4552,0,0,1,.281.4209Zm0-13.6556a.456.456,0,0,1-.63.4209L54.3448,46.51a.4565.4565,0,0,1-.2809-.4209V41.253a.4554.4554,0,0,1,.63-.4209l4.8352,2.0073a.4562.4562,0,0,1,.281.4209Zm.393-21.4992V21.4834a.27.27,0,0,1,.3742-.2493l5.1612,2.141a.27.27,0,0,1,.1668.25v5.1129a.2707.2707,0,0,1-.3743.25L60.37,26.8461A.27.27,0,0,1,60.2034,26.5963Zm6.1577,17.24a.4559.4559,0,0,1-.63.4209l-4.8354-2.0069a.4564.4564,0,0,1-.281-.4209V36.9942a.4554.4554,0,0,1,.63-.4209L66.08,38.5811a.4553.4553,0,0,1,.2809.42Zm0-30.38a.4559.4559,0,0,1-.63.4209l-4.8354-2.0068a.4564.4564,0,0,1-.281-.4209V6.6139a.4555.4555,0,0,1,.63-.4209L66.08,8.2009a.4553.4553,0,0,1,.2809.42Zm.48,8.3157V16.9374a.4554.4554,0,0,1,.63-.4209l4.8354,2.0069a.4564.4564,0,0,1,.281.4209V23.78a.456.456,0,0,1-.63.4209L67.122,22.1935A.4566.4566,0,0,1,66.841,21.7721ZM72.7,38.9527a.456.456,0,0,1-.63.4209l-4.8354-2.0068a.456.456,0,0,1-.281-.4209V32.11a.4555.4555,0,0,1,.63-.42l4.8353,2.0073a.4556.4556,0,0,1,.281.4209Zm.1765-22.603a.27.27,0,0,1-.3742.2493l-5.1611-2.141a.2706.2706,0,0,1-.1669-.25V9.0953a.27.27,0,0,1,.3742-.25l5.1612,2.1415a.27.27,0,0,1,.1668.2493Z" transform="translate(-0.976 -0.5426)"/><polygon class="cls-1" points="66.888 36.099 70.812 37.728 70.812 33.88 66.888 32.25 66.888 36.099"/><polygon class="cls-1" points="70.7 18.706 66.776 17.077 66.776 20.926 70.7 22.555 70.7 18.706"/><polygon class="cls-1" points="13.872 49.645 9.088 50.945 9.088 56.262 13.872 54.987 13.872 49.645"/><polygon class="cls-1" points="6.799 68.442 2.264 69.629 2.264 75.076 6.799 73.867 6.799 68.442"/><path class="cls-1" d="M1.8873,95.1307h21.85V37.1369L1.8873,44.423ZM23.2959,79.0455a.4556.4556,0,0,1-.3382.44l-5.9554,1.5879a.4553.4553,0,0,1-.5731-.44V74.43a.4554.4554,0,0,1,.33-.438l5.9554-1.7087a.4555.4555,0,0,1,.5814.4379Zm0-16.682a.4546.4546,0,0,1-.3382.44l-5.9554,1.5879a.4331.4331,0,0,1-.1174.0156.4555.4555,0,0,1-.4557-.4555v-6.204a.4548.4548,0,0,1,.33-.4375l5.9554-1.7087a.4555.4555,0,0,1,.5814.4379ZM16.4265,49.43a.6809.6809,0,0,1,.4988-.656l5.3853-1.4935a.68.68,0,0,1,.8625.6555v5.5044a.68.68,0,0,1-.5107.6589l-5.3853,1.3883a.6805.6805,0,0,1-.8506-.6589Zm-.2409,17.38v5.5045a.68.68,0,0,1-.5107.6588L10.29,74.3615a.68.68,0,0,1-.8506-.6588V68.3039a.6808.6808,0,0,1,.4988-.656l5.3852-1.4935A.6805.6805,0,0,1,16.1856,66.81ZM9.1524,43.3864a.4549.4549,0,0,1,.31-.4313l5.5938-1.8865a.4556.4556,0,0,1,.6012.4318v5.8869a.4558.4558,0,0,1-.3393.44L9.7243,49.306a.4391.4391,0,0,1-.1163.0152.4559.4559,0,0,1-.4556-.4555Zm0,7.7525A.4552.4552,0,0,1,9.4885,50.7l5.6954-1.5476a.4556.4556,0,0,1,.5751.44V55.88a.4554.4554,0,0,1-.3384.44L9.7253,57.8378a.4525.4525,0,0,1-.1173.0157.4556.4556,0,0,1-.4556-.4555ZM2.41,45.4663a.6265.6265,0,0,1,.46-.603l4.9676-1.3726a.6274.6274,0,0,1,.7957.6029V49.152a.6263.6263,0,0,1-.4712.6057L3.1943,51.0333a.6273.6273,0,0,1-.7847-.6058Zm0,16.3165a.6426.6426,0,0,1,.46-.6218l4.9676-1.4168a.6316.6316,0,0,1,.7957.6219v5.2205a.643.643,0,0,1-.4712.6252L3.1943,67.5285a.6322.6322,0,0,1-.7847-.6252Zm-.0809,8.0365a.4559.4559,0,0,1,.34-.4408l5.446-1.4244a.4553.4553,0,0,1,.5708.4413v6.3638a.4556.4556,0,0,1-.3382.44l-5.446,1.4518a.4279.4279,0,0,1-.1174.0157.4555.4555,0,0,1-.4556-.4555Z" transform="translate(-0.976 -0.5426)"/><path class="cls-1" d="M31.7773,38.4076a.4484.4484,0,0,1-.11.2877L43.7056,43.52V95.1464h8.53V1.7437L31.7773,12.3009Zm17.536-27.12a.4556.4556,0,0,1,.9111,0V47.5949a.4556.4556,0,0,1-.9111,0Zm0,40.2145a.4556.4556,0,0,1,.9111,0V63.9513a.4556.4556,0,0,1-.9111,0Zm0,15.3416a.4556.4556,0,1,1,.9111,0v7.2743a.4556.4556,0,0,1-.9111,0ZM46.3911,15.2813a.4556.4556,0,0,1,.9111,0V49.462a.4556.4556,0,0,1-.9111,0Zm0,38.2134a.4556.4556,0,1,1,.9111,0V60.769a.4556.4556,0,0,1-.9111,0Zm0,10.3158a.4556.4556,0,1,1,.9111,0V76.2594a.4556.4556,0,1,1-.9111,0ZM43.25,9.3166a.4556.4556,0,1,1,.9111,0v22.614a.4556.4556,0,0,1-.9111,0Zm-3.0831,4.8755a.4556.4556,0,0,1,.9112,0V38.985a.4556.4556,0,0,1-.9112,0Zm-3.0083,3.7345a.4556.4556,0,0,1,.9111,0V30.9973a.4556.4556,0,0,1-.9111,0Zm-2.9045-3.7345a.4557.4557,0,0,1,.9113,0V34.7314a.4557.4557,0,0,1-.9113,0Z" transform="translate(-0.976 -0.5426)"/><polygon class="cls-1" points="53.999 58.897 57.923 60.526 57.923 56.678 53.999 55.048 53.999 58.897"/><polygon class="cls-1" points="53.999 45.241 57.923 46.87 57.923 43.022 53.999 41.393 53.999 45.241"/><polygon class="cls-1" points="60.55 10.603 64.474 12.231 64.474 8.383 60.55 6.754 60.55 10.603"/><polygon class="cls-1" points="60.55 40.983 64.474 42.612 64.474 38.763 60.55 37.134 60.55 40.983"/><polygon class="cls-1" points="13.77 41.592 9.088 43.171 9.088 47.731 13.77 46.493 13.77 41.592"/><path class="cls-1" d="M72.0317,95.1307h22.681V56.5936l-22.681-8.0213Zm20.9711-1.5385a.4536.4536,0,0,1-.1506-.0256l-19.0042-6.66a.4555.4555,0,1,1,.3012-.86l19.0042,6.66a.4555.4555,0,0,1-.1506.8855Zm0-5.3992a.4536.4536,0,0,1-.1506-.0256l-19.0042-6.66a.4553.4553,0,1,1,.3012-.8594l19.0042,6.66a.4555.4555,0,0,1-.1506.8855ZM73.5686,66.1767a.4542.4542,0,0,1,.5806-.2787l19.0042,6.66a.4555.4555,0,0,1-.1506.8854.4419.4419,0,0,1-.1506-.0261l-19.0042-6.66A.4552.4552,0,0,1,73.5686,66.1767ZM93.26,83.1071a.4419.4419,0,0,1-.1506-.0261l-19.0042-6.66a.4553.4553,0,1,1,.3013-.8593l19.0042,6.66a.4558.4558,0,0,1-.1507.8859Zm0-4.5769a.451.451,0,0,1-.1506-.0256L74.1051,71.8437a.4553.4553,0,1,1,.3013-.8594l19.0042,6.66a.4555.4555,0,0,1-.1507.8854Zm.43-14.5869a.4563.4563,0,0,1-.43.3047.451.451,0,0,1-.1506-.0256L74.1051,57.5615a.4555.4555,0,1,1,.3013-.86l19.0042,6.6609A.4558.4558,0,0,1,93.69,63.9433ZM74.2778,51.6589l19.0042,6.66a.4555.4555,0,0,1-.1506.8854.4419.4419,0,0,1-.1506-.0261l-19.0042-6.66a.4553.4553,0,1,1,.3012-.8594Zm-.2571,9.6627,19.0044,6.6605a.4552.4552,0,0,1-.1506.8849.4394.4394,0,0,1-.1506-.0255l-19.0045-6.66a.4553.4553,0,1,1,.3013-.8594Z" transform="translate(-0.976 -0.5426)"/><path class="cls-1" d="M11.6373,24.6435a.9585.9585,0,0,0,.5726.1877.9705.9705,0,0,0,.7015-.3l5.06-5.2954a.9708.9708,0,0,0-1.403-1.3423L12.0962,22.575l-2.205-1.6115A.97.97,0,1,0,8.746,22.53Z" transform="translate(-0.976 -0.5426)"/><polygon class="cls-1" points="16.364 62.816 21.409 61.471 21.409 56.101 16.364 57.548 16.364 62.816"/><polygon class="cls-1" points="16.364 79.498 21.409 78.153 21.409 72.783 16.364 74.23 16.364 79.498"/><path class="cls-2" d="M74.4813,48.4718a.4509.4509,0,0,0,.0349-.173V9.8788a.4559.4559,0,0,0-.2807-.4209L52.866.5749C52.8582.5716,52.85.5711,52.8419.5682A.3644.3644,0,0,0,52.788.5535a.3777.3777,0,0,0-.0545-.009.4.4,0,0,0-.0579-.0014.4223.4223,0,0,0-.0549.0048A.5326.5326,0,0,0,52.5664.56a.4028.4028,0,0,0-.0566.02c-.009.0042-.0187.0056-.0276.01L31.1128,11.6183a.4564.4564,0,0,0-.2467.4048V38.374l-6.2177-2.4918v-.0095l-.0128.0043-.0105-.0043V35.88L.976,43.7661V96.0417H43.628a.4172.4172,0,0,0,.0773.0157h16.401a.4155.4155,0,0,0,.0773-.0157h35.44V55.95ZM23.7372,95.1307H1.8873V44.423l21.85-7.2861Zm28.4983.0157h-8.53V43.52L31.6673,38.6953a.4484.4484,0,0,0,.11-.2877V12.3009L52.2355,1.7437ZM60.1064,55.95V95.1464h-6.96V1.6788l20.4584,8.5038v37.98l-2.4845-.8788ZM94.7127,95.1307H72.0317V48.5723l22.681,8.0213Z" transform="translate(-0.976 -0.5426)"/><path class="cls-2" d="M9.608,49.3212a.4391.4391,0,0,0,.1163-.0152l5.594-1.4783a.4558.4558,0,0,0,.3393-.44V41.5a.4556.4556,0,0,0-.6012-.4318L9.4626,42.9551a.4549.4549,0,0,0-.31.4313v5.4793a.4559.4559,0,0,0,.4556.4555Zm.4556-5.6077,4.6827-1.5784v4.901l-4.6827,1.2376Z" transform="translate(-0.976 -0.5426)"/><path class="cls-2" d="M9.608,57.8535a.4525.4525,0,0,0,.1173-.0157L15.4206,56.32a.4554.4554,0,0,0,.3384-.44V49.5919a.4556.4556,0,0,0-.5751-.44L9.4885,50.7a.4552.4552,0,0,0-.3361.4393V57.398a.4556.4556,0,0,0,.4556.4555Zm.4556-6.3662,4.7842-1.3V55.53l-4.7842,1.2745Z" transform="translate(-0.976 -0.5426)"/><path class="cls-2" d="M17.2771,55.4878,22.6624,54.1a.68.68,0,0,0,.5107-.6589V47.9362a.68.68,0,0,0-.8625-.6555l-5.3853,1.4935a.6809.6809,0,0,0-.4988.656v5.3987A.6805.6805,0,0,0,17.2771,55.4878Z" transform="translate(-0.976 -0.5426)"/><path class="cls-2" d="M3.1943,51.0333l4.9675-1.2756a.6263.6263,0,0,0,.4712-.6057V44.0936a.6274.6274,0,0,0-.7957-.6029L2.87,44.8633a.6265.6265,0,0,0-.46.603v4.9612A.6273.6273,0,0,0,3.1943,51.0333Z" transform="translate(-0.976 -0.5426)"/><path class="cls-2" d="M3.1943,67.5285l4.9675-1.3167a.643.643,0,0,0,.4712-.6252V60.3661a.6316.6316,0,0,0-.7957-.6219L2.87,61.161a.6426.6426,0,0,0-.46.6218v5.1205A.6322.6322,0,0,0,3.1943,67.5285Z" transform="translate(-0.976 -0.5426)"/><path class="cls-2" d="M15.3229,66.1544,9.9377,67.6479a.6808.6808,0,0,0-.4988.656v5.3988a.68.68,0,0,0,.8506.6588l5.3854-1.3883a.68.68,0,0,0,.5107-.6588V66.81A.6805.6805,0,0,0,15.3229,66.1544Z" transform="translate(-0.976 -0.5426)"/><path class="cls-2" d="M22.7145,55.6011,16.7591,57.31a.4548.4548,0,0,0-.33.4375v6.204a.4555.4555,0,0,0,.4557.4555.4331.4331,0,0,0,.1174-.0156l5.9554-1.5879a.4546.4546,0,0,0,.3382-.44V56.039a.4555.4555,0,0,0-.5814-.4379Zm-.33,6.4121-5.0442,1.3452V58.0909l5.0442-1.4475Z" transform="translate(-0.976 -0.5426)"/><path class="cls-2" d="M2.7843,76.667a.4279.4279,0,0,0,.1174-.0157L8.3477,75.2a.4556.4556,0,0,0,.3382-.44V68.3954a.4553.4553,0,0,0-.5708-.4413l-5.446,1.4244a.4559.4559,0,0,0-.34.4408v6.3922a.4555.4555,0,0,0,.4556.4555ZM3.24,70.1715l4.5348-1.1864v5.4243L3.24,75.6185Z" transform="translate(-0.976 -0.5426)"/><path class="cls-2" d="M22.7145,72.2831l-5.9554,1.7087a.4554.4554,0,0,0-.33.438v6.2035a.455.455,0,0,0,.5731.44l5.9554-1.5879a.4556.4556,0,0,0,.3382-.44V72.721a.4555.4555,0,0,0-.5814-.4379Zm-.33,6.4126L17.3405,80.04V74.7729l5.0442-1.4471Z" transform="translate(-0.976 -0.5426)"/><path class="cls-2" d="M34.71,35.1869a.4555.4555,0,0,0,.4556-.4555V14.1921a.4557.4557,0,0,0-.9113,0V34.7314A.4556.4556,0,0,0,34.71,35.1869Z" transform="translate(-0.976 -0.5426)"/><path class="cls-2" d="M37.6142,31.4528a.4554.4554,0,0,0,.4555-.4555V17.9266a.4556.4556,0,0,0-.9111,0V30.9973A.4555.4555,0,0,0,37.6142,31.4528Z" transform="translate(-0.976 -0.5426)"/><path class="cls-2" d="M40.6225,39.4405a.4555.4555,0,0,0,.4556-.4555V14.1921a.4556.4556,0,0,0-.9112,0V38.985A.4555.4555,0,0,0,40.6225,39.4405Z" transform="translate(-0.976 -0.5426)"/><path class="cls-2" d="M43.7056,32.3861a.4551.4551,0,0,0,.4555-.4555V9.3166a.4556.4556,0,1,0-.9111,0v22.614A.4552.4552,0,0,0,43.7056,32.3861Z" transform="translate(-0.976 -0.5426)"/><path class="cls-2" d="M49.7688,64.4068a.4554.4554,0,0,0,.4556-.4555V51.502a.4556.4556,0,0,0-.9111,0V63.9513A.4555.4555,0,0,0,49.7688,64.4068Z" transform="translate(-0.976 -0.5426)"/><path class="cls-2" d="M46.8467,76.7153a.4555.4555,0,0,0,.4555-.4559V63.8105a.4556.4556,0,1,0-.9111,0V76.2594A.4556.4556,0,0,0,46.8467,76.7153Z" transform="translate(-0.976 -0.5426)"/><path class="cls-2" d="M46.8467,61.2245a.4555.4555,0,0,0,.4555-.4555V53.4947a.4556.4556,0,1,0-.9111,0V60.769A.4555.4555,0,0,0,46.8467,61.2245Z" transform="translate(-0.976 -0.5426)"/><path class="cls-2" d="M49.7688,74.5734a.4554.4554,0,0,0,.4556-.4555V66.8436a.4556.4556,0,1,0-.9111,0v7.2743A.4555.4555,0,0,0,49.7688,74.5734Z" transform="translate(-0.976 -0.5426)"/><path class="cls-2" d="M46.8467,49.9175a.4554.4554,0,0,0,.4555-.4555V15.2813a.4556.4556,0,0,0-.9111,0V49.462A.4555.4555,0,0,0,46.8467,49.9175Z" transform="translate(-0.976 -0.5426)"/><path class="cls-2" d="M49.7688,48.05a.4554.4554,0,0,0,.4556-.4555V11.2875a.4556.4556,0,0,0-.9111,0V47.5949A.4555.4555,0,0,0,49.7688,48.05Z" transform="translate(-0.976 -0.5426)"/><path class="cls-2" d="M66.08,8.2009,61.2449,6.193a.4555.4555,0,0,0-.63.4209V11.45a.4564.4564,0,0,0,.281.4209l4.8354,2.0068a.4553.4553,0,0,0,.63-.4209V8.6213A.4553.4553,0,0,0,66.08,8.2009Zm-.63,4.573-3.9241-1.6286V7.2965L65.45,8.9256Z" transform="translate(-0.976 -0.5426)"/><path class="cls-2" d="M59.3575,19.158a.27.27,0,0,0,.3743-.2493V13.7953a.27.27,0,0,0-.1668-.2493l-5.1612-2.1415a.27.27,0,0,0-.3742.25v5.1129a.2706.2706,0,0,0,.1669.25Z" transform="translate(-0.976 -0.5426)"/><path class="cls-2" d="M67.5482,8.8455a.27.27,0,0,0-.3742.25v5.1129a.2706.2706,0,0,0,.1669.25l5.1611,2.141a.27.27,0,0,0,.3742-.2493V11.2363a.27.27,0,0,0-.1668-.2493Z" transform="translate(-0.976 -0.5426)"/><path class="cls-2" d="M65.9056,28.7378V23.6249a.27.27,0,0,0-.1668-.25l-5.1612-2.141a.27.27,0,0,0-.3742.2493v5.1129a.27.27,0,0,0,.1669.25l5.161,2.1415A.2707.2707,0,0,0,65.9056,28.7378Z" transform="translate(-0.976 -0.5426)"/><path class="cls-2" d="M59.3575,41.48a.2705.2705,0,0,0,.3743-.25V36.1169a.27.27,0,0,0-.1668-.25l-5.1612-2.141a.27.27,0,0,0-.3742.2493v5.1129a.27.27,0,0,0,.1669.25Z" transform="translate(-0.976 -0.5426)"/><path class="cls-2" d="M59.3575,55.3788a.2705.2705,0,0,0,.3743-.25V50.0161a.27.27,0,0,0-.1668-.2493l-5.1612-2.1415a.27.27,0,0,0-.3742.25V52.988a.2706.2706,0,0,0,.1669.25Z" transform="translate(-0.976 -0.5426)"/><path class="cls-2" d="M71.9574,24.2008a.4554.4554,0,0,0,.63-.4209V18.9443a.4564.4564,0,0,0-.281-.4209l-4.8354-2.0069a.4554.4554,0,0,0-.63.4209v4.8347a.4566.4566,0,0,0,.281.4214ZM67.7522,17.62l3.9241,1.6287v3.8488l-3.9241-1.6291Z" transform="translate(-0.976 -0.5426)"/><path class="cls-2" d="M72.4187,33.6971,67.5834,31.69a.4555.4555,0,0,0-.63.42v4.8357a.456.456,0,0,0,.281.4209L72.07,39.3736a.4554.4554,0,0,0,.63-.4209V34.118A.4556.4556,0,0,0,72.4187,33.6971Zm-.63,4.5731-3.9242-1.6286V32.7928l3.9242,1.63Z" transform="translate(-0.976 -0.5426)"/><path class="cls-2" d="M66.08,38.5811l-4.8353-2.0078a.4554.4554,0,0,0-.63.4209V41.83a.4564.4564,0,0,0,.281.4209l4.8354,2.0069a.4553.4553,0,0,0,.63-.4209V39.0015A.4553.4553,0,0,0,66.08,38.5811Zm-.63,4.573-3.9241-1.6286V37.6767L65.45,39.3058Z" transform="translate(-0.976 -0.5426)"/><path class="cls-2" d="M59.5294,42.8394l-4.8352-2.0073a.4554.4554,0,0,0-.63.4209v4.8356a.4565.4565,0,0,0,.2809.4209L59.18,48.5164a.4554.4554,0,0,0,.63-.4209V43.26A.4562.4562,0,0,0,59.5294,42.8394Zm-.63,4.5735-3.9242-1.6291V41.9355l3.9242,1.6291Z" transform="translate(-0.976 -0.5426)"/><path class="cls-2" d="M59.5294,56.495l-4.8352-2.0073a.4554.4554,0,0,0-.63.4209v4.8351a.4554.4554,0,0,0,.2809.4209L59.18,62.172a.4554.4554,0,0,0,.63-.4209V56.9159A.4552.4552,0,0,0,59.5294,56.495Zm-.63,4.574-3.9242-1.63V55.5911L58.8993,57.22Z" transform="translate(-0.976 -0.5426)"/><path class="cls-2" d="M73.9766,52.5183l19.0042,6.66a.4419.4419,0,0,0,.1506.0261.4555.4555,0,0,0,.1506-.8854l-19.0042-6.66a.4553.4553,0,1,0-.3012.8594Z" transform="translate(-0.976 -0.5426)"/><path class="cls-2" d="M74.4064,56.7017a.4555.4555,0,1,0-.3013.86l19.0042,6.6609a.451.451,0,0,0,.1506.0256.4555.4555,0,0,0,.1507-.8854Z" transform="translate(-0.976 -0.5426)"/><path class="cls-2" d="M73.7194,62.181l19.0045,6.66a.4394.4394,0,0,0,.1506.0255.4552.4552,0,0,0,.1506-.8849L74.0207,61.3216a.4553.4553,0,1,0-.3013.8594Z" transform="translate(-0.976 -0.5426)"/><path class="cls-2" d="M92.8522,73.4178a.4419.4419,0,0,0,.1506.0261.4555.4555,0,0,0,.1506-.8854l-19.0042-6.66a.4553.4553,0,1,0-.3012.8593Z" transform="translate(-0.976 -0.5426)"/><path class="cls-2" d="M93.4106,77.6448l-19.0042-6.66a.4553.4553,0,1,0-.3013.8594l19.0042,6.6609a.451.451,0,0,0,.1506.0256.4555.4555,0,0,0,.1507-.8854Z" transform="translate(-0.976 -0.5426)"/><path class="cls-2" d="M93.4106,82.2212l-19.0042-6.66a.4553.4553,0,1,0-.3013.8593l19.0042,6.66a.4419.4419,0,0,0,.1506.0261.4558.4558,0,0,0,.1507-.8859Z" transform="translate(-0.976 -0.5426)"/><path class="cls-2" d="M93.1534,87.3075l-19.0042-6.66a.4553.4553,0,1,0-.3012.8594l19.0042,6.66a.4556.4556,0,1,0,.3012-.86Z" transform="translate(-0.976 -0.5426)"/><path class="cls-2" d="M93.1534,92.7067l-19.0042-6.66a.4555.4555,0,1,0-.3012.86l19.0042,6.66a.4556.4556,0,1,0,.3012-.86Z" transform="translate(-0.976 -0.5426)"/><path class="cls-2" d="M13.2944,30.6314A9.4184,9.4184,0,1,0,3.876,21.2128,9.4186,9.4186,0,0,0,13.2944,30.6314Zm-4.76-9.4575a.9693.9693,0,0,1,1.3566-.21l2.205,1.6115,4.4725-4.6811a.9708.9708,0,0,1,1.403,1.3423l-5.06,5.2954a.9705.9705,0,0,1-.7015.3.9585.9585,0,0,1-.5726-.1877L8.746,22.53A.97.97,0,0,1,8.5346,21.1739Z" transform="translate(-0.976 -0.5426)"/></svg>