<svg id="Layer_1" data-name="Layer 1" xmlns="http://www.w3.org/2000/svg" viewBox="0 0 95.8368 94.7488"><defs><style>.cls-1{fill:none;}.cls-2{fill:#586d7f;}</style></defs><path class="cls-1" d="M50.2727,78.9937A2.7373,2.7373,0,1,0,53.01,81.7311,2.7374,2.7374,0,0,0,50.2727,78.9937Z" transform="translate(-0.3816 -0.9256)"/><polygon class="cls-1" points="51.914 38.08 44.357 38.139 37.752 67.952 48.642 62.105 48.344 75.45 51.736 75.45 56.556 53.611 44.298 60.752 51.914 38.08"/><path class="cls-1" d="M52.4126,17.8788a4.6765,4.6765,0,0,0-8.06,0L4.3987,85.7119A4.6775,4.6775,0,0,0,8.43,92.7639H88.3352a4.6774,4.6774,0,0,0,4.0313-7.052Zm38.77,71.8343a3.2429,3.2429,0,0,1-2.8474,1.6524H8.43A3.28,3.28,0,0,1,5.6032,86.422L45.5571,18.5889a3.2786,3.2786,0,0,1,5.6511,0L91.1621,86.422A3.2426,3.2426,0,0,1,91.1826,89.7131Z" transform="translate(-0.3816 -0.9256)"/><path class="cls-2" d="M54.9214,16.1882a7.5506,7.5506,0,0,0-13.078,0L2.4911,84.3485A7.5506,7.5506,0,0,0,9.03,95.6744H87.7348a7.5505,7.5505,0,0,0,6.5389-11.3259ZM92.3979,90.4069a4.629,4.629,0,0,1-4.0627,2.357H8.43a4.6775,4.6775,0,0,1-4.0314-7.052l39.954-67.8331a4.6765,4.6765,0,0,1,8.06,0L92.3665,85.7119A4.6276,4.6276,0,0,1,92.3979,90.4069Z" transform="translate(-0.3816 -0.9256)"/><path class="cls-2" d="M51.2082,18.5889a3.2786,3.2786,0,0,0-5.6511,0L5.6032,86.422A3.28,3.28,0,0,0,8.43,91.3655H88.3352a3.28,3.28,0,0,0,2.8269-4.9435Zm-.9355,65.8794A2.7373,2.7373,0,1,1,53.01,81.7311,2.7372,2.7372,0,0,1,50.2727,84.4683Zm1.8447-8.0928H48.7256l.2976-13.3444-10.89,5.8464L44.7387,39.065l7.5573-.0594L44.6791,61.6773l12.2584-7.1407Z" transform="translate(-0.3816 -0.9256)"/><path class="cls-2" d="M69.7573,3.608A39.3664,39.3664,0,0,1,90.1379,55.3486a1.3981,1.3981,0,1,0,2.5646,1.1144,42.1175,42.1175,0,0,0-21.8309-55.42A1.3981,1.3981,0,0,0,69.7573,3.608Z" transform="translate(-0.3816 -0.9256)"/><path class="cls-2" d="M5.1813,57.3043a1.3989,1.3989,0,0,0,1.2809-1.9557A39.3246,39.3246,0,0,1,26.8427,3.608a1.3981,1.3981,0,0,0-1.1144-2.5646A42.1178,42.1178,0,0,0,3.8975,56.463,1.3986,1.3986,0,0,0,5.1813,57.3043Z" transform="translate(-0.3816 -0.9256)"/><path class="cls-2" d="M64.55,13.6959a29.5716,29.5716,0,0,1,15.3086,38.867,1.3981,1.3981,0,1,0,2.5646,1.1143A32.3705,32.3705,0,0,0,65.6645,11.1313,1.3981,1.3981,0,1,0,64.55,13.6959Z" transform="translate(-0.3816 -0.9256)"/><path class="cls-2" d="M14.3418,53.6772a1.3981,1.3981,0,0,0,2.5646-1.1143,29.5717,29.5717,0,0,1,15.3087-38.867,1.3981,1.3981,0,0,0-1.1143-2.5646A32.3707,32.3707,0,0,0,14.3418,53.6772Z" transform="translate(-0.3816 -0.9256)"/></svg>